{
	"patcher" : 	{
		"fileversion" : 1,
		"appversion" : 		{
			"major" : 7,
			"minor" : 0,
			"revision" : 0,
			"architecture" : "x64",
			"modernui" : 1
		}
,
		"rect" : [ 34.0, 79.0, 1212.0, 683.0 ],
		"bglocked" : 0,
		"openinpresentation" : 1,
		"default_fontsize" : 12.0,
		"default_fontface" : 0,
		"default_fontname" : "Arial",
		"gridonopen" : 1,
		"gridsize" : [ 15.0, 15.0 ],
		"gridsnaponopen" : 1,
		"objectsnaponopen" : 1,
		"statusbarvisible" : 2,
		"toolbarvisible" : 1,
		"lefttoolbarpinned" : 0,
		"toptoolbarpinned" : 0,
		"righttoolbarpinned" : 0,
		"bottomtoolbarpinned" : 0,
		"toolbars_unpinned_last_save" : 0,
		"tallnewobj" : 0,
		"boxanimatetime" : 200,
		"enablehscroll" : 1,
		"enablevscroll" : 1,
		"devicewidth" : 0.0,
		"description" : "",
		"digest" : "",
		"tags" : "",
		"style" : "",
		"subpatcher_template" : "",
		"boxes" : [ 			{
				"box" : 				{
					"id" : "obj-52",
					"maxclass" : "newobj",
					"numinlets" : 1,
					"numoutlets" : 1,
					"outlettype" : [ "" ],
					"patching_rect" : [ 59.5, 486.0, 61.0, 22.0 ],
					"saved_object_attributes" : 					{
						"filename" : "sigmsg",
						"parameter_enable" : 0
					}
,
					"style" : "",
					"text" : "js sigmsg"
				}

			}
, 			{
				"box" : 				{
					"activedialcolor" : [ 0.862745, 0.870588, 0.878431, 1.0 ],
					"focusbordercolor" : [ 0.0, 0.019608, 0.078431, 0.0 ],
					"fontface" : 0,
					"fontname" : "Century Gothic",
					"fontsize" : 11.0,
					"id" : "obj-14",
					"maxclass" : "live.dial",
					"numinlets" : 1,
					"numoutlets" : 2,
					"outlettype" : [ "", "float" ],
					"parameter_enable" : 1,
					"patching_rect" : [ 124.75, 371.5, 44.375, 40.0 ],
					"presentation" : 1,
					"presentation_rect" : [ 111.5, 21.5, 44.375, 40.0 ],
					"saved_attribute_attributes" : 					{
						"valueof" : 						{
							"parameter_longname" : "live.dial[105]",
							"parameter_shortname" : "Time CV",
							"parameter_type" : 0,
							"parameter_mmax" : 1.0,
							"parameter_initial_enable" : 1,
							"parameter_initial" : [ 0.0 ],
							"parameter_unitstyle" : 0,
							"parameter_exponent" : 2.0
						}

					}
,
					"shownumber" : 0,
					"varname" : "live.dial[2]"
				}

			}
, 			{
				"box" : 				{
					"activedialcolor" : [ 0.862745, 0.870588, 0.878431, 1.0 ],
					"focusbordercolor" : [ 0.0, 0.019608, 0.078431, 0.0 ],
					"fontface" : 0,
					"fontname" : "Century Gothic",
					"fontsize" : 11.0,
					"id" : "obj-15",
					"maxclass" : "live.dial",
					"numinlets" : 1,
					"numoutlets" : 2,
					"outlettype" : [ "", "float" ],
					"parameter_enable" : 1,
					"patching_rect" : [ 243.0, 371.5, 44.0, 40.0 ],
					"presentation" : 1,
					"presentation_rect" : [ 8.0, 21.5, 44.0, 40.0 ],
					"saved_attribute_attributes" : 					{
						"valueof" : 						{
							"parameter_longname" : "live.dial[106]",
							"parameter_shortname" : "Time",
							"parameter_type" : 0,
							"parameter_mmax" : 3000.0,
							"parameter_initial_enable" : 1,
							"parameter_initial" : [ 0.0 ],
							"parameter_unitstyle" : 0,
							"parameter_exponent" : 3.0
						}

					}
,
					"shownumber" : 0,
					"varname" : "live.dial[5]"
				}

			}
, 			{
				"box" : 				{
					"activedialcolor" : [ 0.862745, 0.870588, 0.878431, 1.0 ],
					"focusbordercolor" : [ 0.0, 0.019608, 0.078431, 0.0 ],
					"fontface" : 0,
					"fontname" : "Century Gothic",
					"fontsize" : 11.0,
					"id" : "obj-2",
					"maxclass" : "live.dial",
					"numinlets" : 1,
					"numoutlets" : 2,
					"outlettype" : [ "", "float" ],
					"parameter_enable" : 1,
					"patching_rect" : [ 302.125, 371.5, 46.0, 40.0 ],
					"presentation" : 1,
					"presentation_rect" : [ 211.5, 21.5, 46.0, 40.0 ],
					"saved_attribute_attributes" : 					{
						"valueof" : 						{
							"parameter_longname" : "live.dial[107]",
							"parameter_shortname" : "Wet",
							"parameter_type" : 0,
							"parameter_mmax" : 1.0,
							"parameter_initial_enable" : 1,
							"parameter_initial" : [ 0.0 ],
							"parameter_unitstyle" : 0,
							"parameter_exponent" : 2.0
						}

					}
,
					"shownumber" : 0,
					"varname" : "live.dial[1]"
				}

			}
, 			{
				"box" : 				{
					"activedialcolor" : [ 0.862745, 0.870588, 0.878431, 1.0 ],
					"focusbordercolor" : [ 0.0, 0.019608, 0.078431, 0.0 ],
					"fontface" : 0,
					"fontname" : "Century Gothic",
					"fontsize" : 11.0,
					"id" : "obj-5",
					"maxclass" : "live.dial",
					"numinlets" : 1,
					"numoutlets" : 2,
					"outlettype" : [ "", "float" ],
					"parameter_enable" : 1,
					"patching_rect" : [ 154.3125, 371.5, 54.125, 40.0 ],
					"presentation" : 1,
					"presentation_rect" : [ 51.375, 21.5, 54.125, 40.0 ],
					"saved_attribute_attributes" : 					{
						"valueof" : 						{
							"parameter_longname" : "live.dial[108]",
							"parameter_shortname" : "Feedback",
							"parameter_type" : 0,
							"parameter_mmax" : 0.99,
							"parameter_initial_enable" : 1,
							"parameter_initial" : [ 0.0 ],
							"parameter_unitstyle" : 0
						}

					}
,
					"shownumber" : 0,
					"varname" : "live.dial[4]"
				}

			}
, 			{
				"box" : 				{
					"activedialcolor" : [ 0.862745, 0.870588, 0.878431, 1.0 ],
					"focusbordercolor" : [ 0.0, 0.019608, 0.078431, 0.0 ],
					"fontface" : 0,
					"fontname" : "Century Gothic",
					"fontsize" : 11.0,
					"id" : "obj-4",
					"maxclass" : "live.dial",
					"numinlets" : 1,
					"numoutlets" : 2,
					"outlettype" : [ "", "float" ],
					"parameter_enable" : 1,
					"patching_rect" : [ 213.4375, 371.5, 46.25, 40.0 ],
					"presentation" : 1,
					"presentation_rect" : [ 162.375, 21.5, 46.25, 40.0 ],
					"saved_attribute_attributes" : 					{
						"valueof" : 						{
							"parameter_longname" : "live.dial[109]",
							"parameter_shortname" : "Feed CV",
							"parameter_type" : 0,
							"parameter_mmax" : 1.0,
							"parameter_initial_enable" : 1,
							"parameter_initial" : [ 0.0 ],
							"parameter_unitstyle" : 0,
							"parameter_exponent" : 2.0
						}

					}
,
					"shownumber" : 0,
					"varname" : "live.dial[3]"
				}

			}
, 			{
				"box" : 				{
					"handoff" : "",
					"hilite" : 0,
					"hint" : "TCV",
					"hltcolor" : [ 0.92549, 0.364706, 0.341176, 0.501961 ],
					"id" : "obj-16",
					"maxclass" : "ubutton",
					"numinlets" : 1,
					"numoutlets" : 4,
					"outlettype" : [ "bang", "bang", "", "int" ],
					"patching_rect" : [ 937.0, 133.0, 19.0, 20.0 ],
					"presentation" : 1,
					"presentation_rect" : [ 97.0, -1.0, 30.0, 18.5 ],
					"rounded" : 10.0,
					"varname" : "in_2"
				}

			}
, 			{
				"box" : 				{
					"handoff" : "",
					"hilite" : 0,
					"hint" : "FCV",
					"hltcolor" : [ 0.92549, 0.364706, 0.341176, 0.501961 ],
					"id" : "obj-81",
					"maxclass" : "ubutton",
					"numinlets" : 1,
					"numoutlets" : 4,
					"outlettype" : [ "bang", "bang", "", "int" ],
					"patching_rect" : [ 958.0, 133.0, 19.0, 20.0 ],
					"presentation" : 1,
					"presentation_rect" : [ 148.0, -1.5, 29.0, 19.0 ],
					"rounded" : 10.0,
					"varname" : "in_3"
				}

			}
, 			{
				"box" : 				{
					"handoff" : "",
					"hilite" : 0,
					"hint" : "WCV",
					"hltcolor" : [ 0.92549, 0.364706, 0.341176, 0.501961 ],
					"id" : "obj-80",
					"maxclass" : "ubutton",
					"numinlets" : 1,
					"numoutlets" : 4,
					"outlettype" : [ "bang", "bang", "", "int" ],
					"patching_rect" : [ 979.0, 133.0, 19.0, 20.0 ],
					"presentation" : 1,
					"presentation_rect" : [ 196.0, -1.0, 33.0, 18.5 ],
					"rounded" : 10.0,
					"varname" : "in_4"
				}

			}
, 			{
				"box" : 				{
					"handoff" : "",
					"hilite" : 0,
					"hint" : "Audio In",
					"hltcolor" : [ 0.92549, 0.364706, 0.341176, 0.501961 ],
					"id" : "obj-17",
					"maxclass" : "ubutton",
					"numinlets" : 1,
					"numoutlets" : 4,
					"outlettype" : [ "bang", "bang", "", "int" ],
					"patching_rect" : [ 916.0, 133.0, 19.0, 20.0 ],
					"presentation" : 1,
					"presentation_rect" : [ 44.0, -1.0, 47.0, 18.5 ],
					"rounded" : 10.0,
					"varname" : "in_1"
				}

			}
, 			{
				"box" : 				{
					"handoff" : "",
					"hilite" : 0,
					"hint" : "Output",
					"hltcolor" : [ 0.92549, 0.364706, 0.341176, 0.501961 ],
					"id" : "obj-76",
					"maxclass" : "ubutton",
					"numinlets" : 1,
					"numoutlets" : 4,
					"outlettype" : [ "bang", "bang", "", "int" ],
					"patching_rect" : [ 916.0, 155.0, 19.0, 20.0 ],
					"presentation" : 1,
					"presentation_rect" : [ 112.5, 64.5, 42.375, 19.0 ],
					"rounded" : 10.0,
					"varname" : "out_1"
				}

			}
, 			{
				"box" : 				{
					"id" : "obj-96",
					"maxclass" : "newobj",
					"numinlets" : 1,
					"numoutlets" : 2,
					"outlettype" : [ "", "move" ],
					"patcher" : 					{
						"fileversion" : 1,
						"appversion" : 						{
							"major" : 7,
							"minor" : 0,
							"revision" : 0,
							"architecture" : "x64",
							"modernui" : 1
						}
,
						"rect" : [ 59.0, 104.0, 230.0, 381.0 ],
						"bglocked" : 0,
						"openinpresentation" : 0,
						"default_fontsize" : 12.0,
						"default_fontface" : 0,
						"default_fontname" : "Arial",
						"gridonopen" : 1,
						"gridsize" : [ 15.0, 15.0 ],
						"gridsnaponopen" : 1,
						"objectsnaponopen" : 1,
						"statusbarvisible" : 2,
						"toolbarvisible" : 1,
						"lefttoolbarpinned" : 0,
						"toptoolbarpinned" : 0,
						"righttoolbarpinned" : 0,
						"bottomtoolbarpinned" : 0,
						"toolbars_unpinned_last_save" : 0,
						"tallnewobj" : 0,
						"boxanimatetime" : 200,
						"enablehscroll" : 1,
						"enablevscroll" : 1,
						"devicewidth" : 0.0,
						"description" : "",
						"digest" : "",
						"tags" : "",
						"style" : "",
						"subpatcher_template" : "",
						"boxes" : [ 							{
								"box" : 								{
									"hidden" : 1,
									"id" : "obj-182",
									"maxclass" : "newobj",
									"numinlets" : 1,
									"numoutlets" : 0,
									"patching_rect" : [ 115.166687, 223.999969, 41.0, 22.0 ],
									"style" : "",
									"text" : "s sels"
								}

							}
, 							{
								"box" : 								{
									"hidden" : 1,
									"id" : "obj-180",
									"maxclass" : "message",
									"numinlets" : 2,
									"numoutlets" : 1,
									"outlettype" : [ "" ],
									"patching_rect" : [ 115.166687, 195.0, 55.0, 22.0 ],
									"style" : "",
									"text" : "border 0"
								}

							}
, 							{
								"box" : 								{
									"id" : "obj-89",
									"maxclass" : "newobj",
									"numinlets" : 2,
									"numoutlets" : 1,
									"outlettype" : [ "" ],
									"patching_rect" : [ 62.0, 134.0, 57.0, 22.0 ],
									"style" : "",
									"text" : "pipe 100"
								}

							}
, 							{
								"box" : 								{
									"id" : "obj-90",
									"maxclass" : "newobj",
									"numinlets" : 2,
									"numoutlets" : 1,
									"outlettype" : [ "" ],
									"patching_rect" : [ 62.0, 162.0, 34.0, 22.0 ],
									"style" : "",
									"text" : "gate"
								}

							}
, 							{
								"box" : 								{
									"id" : "obj-92",
									"maxclass" : "newobj",
									"numinlets" : 1,
									"numoutlets" : 5,
									"outlettype" : [ "int", "bang", "int", "bang", "move" ],
									"patching_rect" : [ 98.166687, 100.0, 87.0, 22.0 ],
									"style" : "",
									"text" : "t 1 b 0 b move"
								}

							}
, 							{
								"box" : 								{
									"id" : "obj-93",
									"maxclass" : "newobj",
									"numinlets" : 0,
									"numoutlets" : 1,
									"outlettype" : [ "" ],
									"patching_rect" : [ 50.0, 100.0, 39.0, 22.0 ],
									"style" : "",
									"text" : "r sels"
								}

							}
, 							{
								"box" : 								{
									"id" : "obj-94",
									"maxclass" : "message",
									"numinlets" : 2,
									"numoutlets" : 1,
									"outlettype" : [ "" ],
									"patching_rect" : [ 101.0, 162.0, 55.0, 22.0 ],
									"style" : "",
									"text" : "border 1"
								}

							}
, 							{
								"box" : 								{
									"comment" : "",
									"id" : "obj-47",
									"maxclass" : "inlet",
									"numinlets" : 0,
									"numoutlets" : 1,
									"outlettype" : [ "bang" ],
									"patching_rect" : [ 98.166687, 40.0, 30.0, 30.0 ],
									"style" : ""
								}

							}
, 							{
								"box" : 								{
									"comment" : "",
									"id" : "obj-91",
									"maxclass" : "outlet",
									"numinlets" : 1,
									"numoutlets" : 0,
									"patching_rect" : [ 75.5, 315.999969, 30.0, 30.0 ],
									"style" : ""
								}

							}
, 							{
								"box" : 								{
									"comment" : "",
									"id" : "obj-95",
									"maxclass" : "outlet",
									"numinlets" : 1,
									"numoutlets" : 0,
									"patching_rect" : [ 166.166687, 315.999969, 30.0, 30.0 ],
									"style" : ""
								}

							}
 ],
						"lines" : [ 							{
								"patchline" : 								{
									"destination" : [ "obj-182", 0 ],
									"disabled" : 0,
									"hidden" : 1,
									"source" : [ "obj-180", 0 ]
								}

							}
, 							{
								"patchline" : 								{
									"destination" : [ "obj-92", 0 ],
									"disabled" : 0,
									"hidden" : 0,
									"source" : [ "obj-47", 0 ]
								}

							}
, 							{
								"patchline" : 								{
									"destination" : [ "obj-90", 0 ],
									"disabled" : 0,
									"hidden" : 0,
									"source" : [ "obj-89", 0 ]
								}

							}
, 							{
								"patchline" : 								{
									"destination" : [ "obj-91", 0 ],
									"disabled" : 0,
									"hidden" : 0,
									"source" : [ "obj-90", 0 ]
								}

							}
, 							{
								"patchline" : 								{
									"destination" : [ "obj-180", 0 ],
									"disabled" : 0,
									"hidden" : 0,
									"source" : [ "obj-92", 1 ]
								}

							}
, 							{
								"patchline" : 								{
									"destination" : [ "obj-89", 0 ],
									"disabled" : 0,
									"hidden" : 0,
									"source" : [ "obj-92", 0 ]
								}

							}
, 							{
								"patchline" : 								{
									"destination" : [ "obj-90", 0 ],
									"disabled" : 0,
									"hidden" : 0,
									"source" : [ "obj-92", 2 ]
								}

							}
, 							{
								"patchline" : 								{
									"destination" : [ "obj-94", 0 ],
									"disabled" : 0,
									"hidden" : 0,
									"source" : [ "obj-92", 3 ]
								}

							}
, 							{
								"patchline" : 								{
									"destination" : [ "obj-95", 0 ],
									"disabled" : 0,
									"hidden" : 0,
									"source" : [ "obj-92", 4 ]
								}

							}
, 							{
								"patchline" : 								{
									"destination" : [ "obj-90", 1 ],
									"disabled" : 0,
									"hidden" : 0,
									"source" : [ "obj-93", 0 ]
								}

							}
, 							{
								"patchline" : 								{
									"destination" : [ "obj-91", 0 ],
									"disabled" : 0,
									"hidden" : 0,
									"source" : [ "obj-94", 0 ]
								}

							}
 ],
						"styles" : [ 							{
								"name" : "AudioStatus_Menu",
								"default" : 								{
									"bgfillcolor" : 									{
										"type" : "color",
										"color" : [ 0.294118, 0.313726, 0.337255, 1 ],
										"color1" : [ 0.454902, 0.462745, 0.482353, 0.0 ],
										"color2" : [ 0.290196, 0.309804, 0.301961, 1.0 ],
										"angle" : 270.0,
										"proportion" : 0.39,
										"autogradient" : 0
									}

								}
,
								"parentstyle" : "",
								"multi" : 0
							}
, 							{
								"name" : "Luca",
								"default" : 								{
									"selectioncolor" : [ 0.720698, 0.16723, 0.080014, 1.0 ],
									"fontname" : [ "Open Sans Semibold" ],
									"color" : [ 0.475135, 0.293895, 0.251069, 1.0 ],
									"textcolor_inverse" : [ 0.239216, 0.254902, 0.278431, 1.0 ],
									"accentcolor" : [ 0.32549, 0.345098, 0.372549, 1.0 ],
									"elementcolor" : [ 0.786675, 0.801885, 0.845022, 1.0 ],
									"bgcolor" : [ 0.904179, 0.895477, 0.842975, 0.56 ],
									"bgfillcolor" : 									{
										"type" : "gradient",
										"color" : [ 0.290196, 0.309804, 0.301961, 1.0 ],
										"color1" : [ 0.862745, 0.870588, 0.878431, 1.0 ],
										"color2" : [ 0.65098, 0.666667, 0.662745, 1.0 ],
										"angle" : 270.0,
										"proportion" : 0.39,
										"autogradient" : 0
									}

								}
,
								"parentstyle" : "",
								"multi" : 0
							}
, 							{
								"name" : "dark-night-patch",
								"default" : 								{
									"textcolor" : [ 0.862745, 0.870588, 0.878431, 1.0 ],
									"patchlinecolor" : [ 0.439216, 0.74902, 0.254902, 0.898039 ],
									"accentcolor" : [ 0.952941, 0.564706, 0.098039, 1.0 ],
									"bgfillcolor" : 									{
										"type" : "gradient",
										"color1" : [ 0.376471, 0.384314, 0.4, 1.0 ],
										"color2" : [ 0.290196, 0.309804, 0.301961, 1.0 ],
										"color" : [ 0.290196, 0.309804, 0.301961, 1.0 ],
										"angle" : 270.0,
										"proportion" : 0.39
									}

								}
,
								"parentstyle" : "",
								"multi" : 0
							}
, 							{
								"name" : "newobjBlue-1",
								"default" : 								{
									"accentcolor" : [ 0.317647, 0.654902, 0.976471, 1.0 ]
								}
,
								"parentstyle" : "",
								"multi" : 0
							}
, 							{
								"name" : "newobjGreen-1",
								"default" : 								{
									"accentcolor" : [ 0.0, 0.533333, 0.168627, 1.0 ]
								}
,
								"parentstyle" : "",
								"multi" : 0
							}
, 							{
								"name" : "newobjRed-1",
								"default" : 								{
									"accentcolor" : [ 0.784314, 0.145098, 0.023529, 1.0 ]
								}
,
								"parentstyle" : "",
								"multi" : 0
							}
, 							{
								"name" : "newobjYellow-1",
								"default" : 								{
									"fontsize" : [ 12.059008 ],
									"accentcolor" : [ 0.82517, 0.78181, 0.059545, 1.0 ]
								}
,
								"parentstyle" : "",
								"multi" : 0
							}
, 							{
								"name" : "newobjYellow-2",
								"default" : 								{
									"fontsize" : [ 12.059008 ],
									"accentcolor" : [ 0.82517, 0.78181, 0.059545, 1.0 ]
								}
,
								"parentstyle" : "",
								"multi" : 0
							}
, 							{
								"name" : "numberGold-1",
								"default" : 								{
									"accentcolor" : [ 0.764706, 0.592157, 0.101961, 1.0 ]
								}
,
								"parentstyle" : "",
								"multi" : 0
							}
 ]
					}
,
					"patching_rect" : [ 736.0, 101.0, 42.0, 22.0 ],
					"saved_object_attributes" : 					{
						"description" : "",
						"digest" : "",
						"globalpatchername" : "",
						"style" : "",
						"tags" : ""
					}
,
					"style" : "",
					"text" : "p selc"
				}

			}
, 			{
				"box" : 				{
					"id" : "obj-48",
					"maxclass" : "newobj",
					"numinlets" : 1,
					"numoutlets" : 0,
					"patching_rect" : [ 795.0, 163.0, 66.0, 22.0 ],
					"style" : "",
					"text" : "s to_move"
				}

			}
, 			{
				"box" : 				{
					"angle" : 270.0,
					"bgcolor" : [ 0.290196, 0.309804, 0.301961, 0.0 ],
					"bordercolor" : [ 0.0, 0.0, 0.0, 1.0 ],
					"id" : "obj-37",
					"maxclass" : "panel",
					"mode" : 0,
					"numinlets" : 1,
					"numoutlets" : 0,
					"patching_rect" : [ 736.0, 133.0, 26.0, 28.0 ],
					"presentation" : 1,
					"presentation_rect" : [ 0.6875, 0.5, 266.0, 80.0 ],
					"proportion" : 0.39,
					"rounded" : 0,
					"style" : ""
				}

			}
, 			{
				"box" : 				{
					"id" : "obj-20",
					"maxclass" : "newobj",
					"numinlets" : 0,
					"numoutlets" : 1,
					"outlettype" : [ "" ],
					"patching_rect" : [ 635.0, 111.0, 50.0, 22.0 ],
					"style" : "",
					"text" : "r hpline"
				}

			}
, 			{
				"box" : 				{
					"id" : "obj-18",
					"maxclass" : "newobj",
					"numinlets" : 0,
					"numoutlets" : 1,
					"outlettype" : [ "" ],
					"patching_rect" : [ 979.0, 92.0, 44.0, 22.0 ],
					"style" : "",
					"text" : "r delfb"
				}

			}
, 			{
				"box" : 				{
					"id" : "obj-38",
					"maxclass" : "newobj",
					"numinlets" : 1,
					"numoutlets" : 5,
					"outlettype" : [ "", "", "", "", "" ],
					"patching_rect" : [ 840.5, 101.0, 72.0, 22.0 ],
					"style" : "",
					"text" : "regexp _ \" \""
				}

			}
, 			{
				"box" : 				{
					"id" : "obj-123",
					"maxclass" : "newobj",
					"numinlets" : 1,
					"numoutlets" : 4,
					"outlettype" : [ "", "", "", "" ],
					"patching_rect" : [ 840.5, 73.0, 50.5, 22.0 ],
					"saved_object_attributes" : 					{
						"mode" : 0
					}
,
					"style" : "",
					"text" : "hover"
				}

			}
, 			{
				"box" : 				{
					"id" : "obj-56",
					"maxclass" : "newobj",
					"numinlets" : 1,
					"numoutlets" : 0,
					"patching_rect" : [ 860.0, 205.0, 46.0, 22.0 ],
					"style" : "",
					"text" : "s conn"
				}

			}
, 			{
				"box" : 				{
					"id" : "obj-32",
					"maxclass" : "newobj",
					"numinlets" : 1,
					"numoutlets" : 2,
					"outlettype" : [ "", "" ],
					"patching_rect" : [ 795.0, 133.0, 84.0, 22.0 ],
					"saved_object_attributes" : 					{
						"filename" : "click",
						"parameter_enable" : 0
					}
,
					"style" : "",
					"text" : "js click"
				}

			}
, 			{
				"box" : 				{
					"handoff" : "",
					"hilite" : 0,
					"id" : "obj-19",
					"maxclass" : "ubutton",
					"numinlets" : 1,
					"numoutlets" : 4,
					"outlettype" : [ "bang", "bang", "", "int" ],
					"patching_rect" : [ 714.333313, 50.0, 84.0, 40.0 ],
					"presentation" : 1,
					"presentation_rect" : [ -2.3125, -1.5, 270.0, 87.0 ]
				}

			}
, 			{
				"box" : 				{
					"id" : "obj-1",
					"maxclass" : "message",
					"numinlets" : 2,
					"numoutlets" : 1,
					"outlettype" : [ "" ],
					"patching_rect" : [ 568.5, 111.0, 55.0, 22.0 ],
					"style" : "",
					"text" : "border 1"
				}

			}
, 			{
				"box" : 				{
					"id" : "obj-7",
					"maxclass" : "message",
					"numinlets" : 2,
					"numoutlets" : 1,
					"outlettype" : [ "" ],
					"patching_rect" : [ 515.0, 111.0, 47.0, 22.0 ],
					"style" : "",
					"text" : "268 82"
				}

			}
, 			{
				"box" : 				{
					"id" : "obj-6",
					"maxclass" : "newobj",
					"numinlets" : 1,
					"numoutlets" : 1,
					"outlettype" : [ "" ],
					"patching_rect" : [ 568.5, 75.5, 56.0, 22.0 ],
					"style" : "",
					"text" : "deferlow"
				}

			}
, 			{
				"box" : 				{
					"id" : "obj-12",
					"maxclass" : "newobj",
					"numinlets" : 1,
					"numoutlets" : 1,
					"outlettype" : [ "bang" ],
					"patching_rect" : [ 568.5, 50.0, 60.0, 22.0 ],
					"style" : "",
					"text" : "loadbang"
				}

			}
, 			{
				"box" : 				{
					"id" : "obj-8",
					"maxclass" : "newobj",
					"numinlets" : 1,
					"numoutlets" : 2,
					"outlettype" : [ "", "" ],
					"patching_rect" : [ 568.5, 147.0, 69.0, 22.0 ],
					"save" : [ "#N", "thispatcher", ";", "#Q", "end", ";" ],
					"style" : "",
					"text" : "thispatcher"
				}

			}
, 			{
				"box" : 				{
					"id" : "obj-29",
					"maxclass" : "newobj",
					"numinlets" : 1,
					"numoutlets" : 1,
					"outlettype" : [ "" ],
					"patching_rect" : [ 515.0, 147.0, 44.0, 22.0 ],
					"saved_object_attributes" : 					{
						"filename" : "size",
						"parameter_enable" : 0
					}
,
					"style" : "",
					"text" : "js size"
				}

			}
, 			{
				"box" : 				{
					"id" : "obj-83",
					"maxclass" : "newobj",
					"numinlets" : 1,
					"numoutlets" : 1,
					"outlettype" : [ "" ],
					"patching_rect" : [ -38.0, 329.0, 121.0, 22.0 ],
					"style" : "",
					"text" : "loadmess enable 0 1"
				}

			}
, 			{
				"box" : 				{
					"id" : "obj-82",
					"maxclass" : "message",
					"numinlets" : 2,
					"numoutlets" : 1,
					"outlettype" : [ "" ],
					"patching_rect" : [ 47.0, 359.0, 67.0, 22.0 ],
					"style" : "",
					"text" : "enable 1 1"
				}

			}
, 			{
				"box" : 				{
					"id" : "obj-79",
					"maxclass" : "newobj",
					"numinlets" : 1,
					"numoutlets" : 1,
					"outlettype" : [ "" ],
					"patching_rect" : [ 47.0, 406.0, 53.0, 22.0 ],
					"style" : "",
					"text" : "pcontrol"
				}

			}
, 			{
				"box" : 				{
					"id" : "obj-77",
					"maxclass" : "newobj",
					"numinlets" : 2,
					"numoutlets" : 2,
					"outlettype" : [ "bang", "" ],
					"patching_rect" : [ 47.0, 305.0, 61.0, 22.0 ],
					"style" : "",
					"text" : "sel signal"
				}

			}
, 			{
				"box" : 				{
					"id" : "obj-50",
					"maxclass" : "newobj",
					"numinlets" : 9,
					"numoutlets" : 1,
					"outlettype" : [ "signal" ],
					"patcher" : 					{
						"fileversion" : 1,
						"appversion" : 						{
							"major" : 7,
							"minor" : 0,
							"revision" : 0,
							"architecture" : "x64",
							"modernui" : 1
						}
,
						"rect" : [ 245.0, 128.0, 484.0, 267.0 ],
						"bglocked" : 0,
						"openinpresentation" : 0,
						"default_fontsize" : 12.0,
						"default_fontface" : 0,
						"default_fontname" : "Arial",
						"gridonopen" : 1,
						"gridsize" : [ 15.0, 15.0 ],
						"gridsnaponopen" : 1,
						"objectsnaponopen" : 1,
						"statusbarvisible" : 2,
						"toolbarvisible" : 1,
						"lefttoolbarpinned" : 0,
						"toptoolbarpinned" : 0,
						"righttoolbarpinned" : 0,
						"bottomtoolbarpinned" : 0,
						"toolbars_unpinned_last_save" : 0,
						"tallnewobj" : 0,
						"boxanimatetime" : 200,
						"enablehscroll" : 1,
						"enablevscroll" : 1,
						"devicewidth" : 0.0,
						"description" : "",
						"digest" : "",
						"tags" : "",
						"style" : "",
						"subpatcher_template" : "",
						"boxes" : [ 							{
								"box" : 								{
									"id" : "obj-9",
									"maxclass" : "newobj",
									"numinlets" : 2,
									"numoutlets" : 1,
									"outlettype" : [ "signal" ],
									"patching_rect" : [ 52.75, 177.0, 29.5, 22.0 ],
									"style" : "",
									"text" : "*~"
								}

							}
, 							{
								"box" : 								{
									"id" : "obj-8",
									"maxclass" : "newobj",
									"numinlets" : 2,
									"numoutlets" : 1,
									"outlettype" : [ "signal" ],
									"patching_rect" : [ 17.0, 177.0, 29.5, 22.0 ],
									"style" : "",
									"text" : "*~"
								}

							}
, 							{
								"box" : 								{
									"id" : "obj-7",
									"maxclass" : "message",
									"numinlets" : 2,
									"numoutlets" : 1,
									"outlettype" : [ "" ],
									"patching_rect" : [ 157.75, 97.0, 37.0, 22.0 ],
									"style" : "",
									"text" : "fb $1"
								}

							}
, 							{
								"box" : 								{
									"id" : "obj-6",
									"maxclass" : "message",
									"numinlets" : 2,
									"numoutlets" : 1,
									"outlettype" : [ "" ],
									"patching_rect" : [ 227.75, 97.0, 43.0, 22.0 ],
									"style" : "",
									"text" : "fcv $1"
								}

							}
, 							{
								"box" : 								{
									"id" : "obj-5",
									"maxclass" : "message",
									"numinlets" : 2,
									"numoutlets" : 1,
									"outlettype" : [ "" ],
									"patching_rect" : [ 262.75, 63.0, 50.0, 22.0 ],
									"style" : "",
									"text" : "time $1"
								}

							}
, 							{
								"box" : 								{
									"id" : "obj-4",
									"maxclass" : "message",
									"numinlets" : 2,
									"numoutlets" : 1,
									"outlettype" : [ "" ],
									"patching_rect" : [ 122.75, 63.0, 43.0, 22.0 ],
									"style" : "",
									"text" : "tcv $1"
								}

							}
, 							{
								"box" : 								{
									"id" : "obj-1",
									"maxclass" : "newobj",
									"numinlets" : 3,
									"numoutlets" : 1,
									"outlettype" : [ "signal" ],
									"patching_rect" : [ 52.75, 132.5, 89.0, 22.0 ],
									"style" : "",
									"text" : "gen~ delgen"
								}

							}
, 							{
								"box" : 								{
									"id" : "obj-2",
									"maxclass" : "newobj",
									"numinlets" : 3,
									"numoutlets" : 1,
									"outlettype" : [ "signal" ],
									"patching_rect" : [ 377.8125, 132.5, 97.0, 22.0 ],
									"style" : "",
									"text" : "trapezoid~ 0.5 1"
								}

							}
, 							{
								"box" : 								{
									"id" : "obj-10",
									"maxclass" : "newobj",
									"numinlets" : 3,
									"numoutlets" : 1,
									"outlettype" : [ "signal" ],
									"patching_rect" : [ 318.75, 132.5, 100.0, 22.0 ],
									"style" : "",
									"text" : "trapezoid~ 0. 0.5"
								}

							}
, 							{
								"box" : 								{
									"id" : "obj-39",
									"maxclass" : "newobj",
									"numinlets" : 3,
									"numoutlets" : 1,
									"outlettype" : [ "signal" ],
									"patching_rect" : [ 318.75, 97.0, 62.0, 22.0 ],
									"style" : "",
									"text" : "clip~ 0. 1."
								}

							}
, 							{
								"box" : 								{
									"id" : "obj-37",
									"maxclass" : "newobj",
									"numinlets" : 2,
									"numoutlets" : 1,
									"outlettype" : [ "signal" ],
									"patching_rect" : [ 318.75, 63.0, 29.5, 22.0 ],
									"style" : "",
									"text" : "+~"
								}

							}
, 							{
								"box" : 								{
									"comment" : "",
									"id" : "obj-16",
									"maxclass" : "inlet",
									"numinlets" : 0,
									"numoutlets" : 1,
									"outlettype" : [ "" ],
									"patching_rect" : [ 52.75, 21.0, 30.0, 30.0 ],
									"style" : ""
								}

							}
, 							{
								"box" : 								{
									"comment" : "",
									"id" : "obj-17",
									"maxclass" : "inlet",
									"numinlets" : 0,
									"numoutlets" : 1,
									"outlettype" : [ "" ],
									"patching_rect" : [ 87.75, 21.0, 30.0, 30.0 ],
									"style" : ""
								}

							}
, 							{
								"box" : 								{
									"comment" : "",
									"id" : "obj-19",
									"maxclass" : "inlet",
									"numinlets" : 0,
									"numoutlets" : 1,
									"outlettype" : [ "" ],
									"patching_rect" : [ 122.75, 21.0, 30.0, 30.0 ],
									"style" : ""
								}

							}
, 							{
								"box" : 								{
									"comment" : "",
									"id" : "obj-41",
									"maxclass" : "inlet",
									"numinlets" : 0,
									"numoutlets" : 1,
									"outlettype" : [ "" ],
									"patching_rect" : [ 157.75, 21.0, 30.0, 30.0 ],
									"style" : ""
								}

							}
, 							{
								"box" : 								{
									"comment" : "",
									"id" : "obj-44",
									"maxclass" : "inlet",
									"numinlets" : 0,
									"numoutlets" : 1,
									"outlettype" : [ "" ],
									"patching_rect" : [ 192.75, 21.0, 30.0, 30.0 ],
									"style" : ""
								}

							}
, 							{
								"box" : 								{
									"comment" : "",
									"id" : "obj-45",
									"maxclass" : "inlet",
									"numinlets" : 0,
									"numoutlets" : 1,
									"outlettype" : [ "" ],
									"patching_rect" : [ 227.75, 21.0, 30.0, 30.0 ],
									"style" : ""
								}

							}
, 							{
								"box" : 								{
									"comment" : "",
									"id" : "obj-46",
									"maxclass" : "inlet",
									"numinlets" : 0,
									"numoutlets" : 1,
									"outlettype" : [ "" ],
									"patching_rect" : [ 262.75, 21.0, 30.0, 30.0 ],
									"style" : ""
								}

							}
, 							{
								"box" : 								{
									"comment" : "",
									"id" : "obj-47",
									"maxclass" : "inlet",
									"numinlets" : 0,
									"numoutlets" : 1,
									"outlettype" : [ "" ],
									"patching_rect" : [ 318.75, 21.0, 30.0, 30.0 ],
									"style" : ""
								}

							}
, 							{
								"box" : 								{
									"comment" : "",
									"id" : "obj-48",
									"maxclass" : "inlet",
									"numinlets" : 0,
									"numoutlets" : 1,
									"outlettype" : [ "" ],
									"patching_rect" : [ 353.75, 21.0, 30.0, 30.0 ],
									"style" : ""
								}

							}
, 							{
								"box" : 								{
									"comment" : "",
									"id" : "obj-49",
									"maxclass" : "outlet",
									"numinlets" : 1,
									"numoutlets" : 0,
									"patching_rect" : [ 52.75, 219.611328, 30.0, 30.0 ],
									"style" : ""
								}

							}
 ],
						"lines" : [ 							{
								"patchline" : 								{
									"destination" : [ "obj-9", 0 ],
									"disabled" : 0,
									"hidden" : 0,
									"source" : [ "obj-1", 0 ]
								}

							}
, 							{
								"patchline" : 								{
									"destination" : [ "obj-8", 1 ],
									"disabled" : 0,
									"hidden" : 0,
									"source" : [ "obj-10", 0 ]
								}

							}
, 							{
								"patchline" : 								{
									"destination" : [ "obj-1", 0 ],
									"disabled" : 0,
									"hidden" : 0,
									"source" : [ "obj-16", 0 ]
								}

							}
, 							{
								"patchline" : 								{
									"destination" : [ "obj-8", 0 ],
									"disabled" : 0,
									"hidden" : 0,
									"midpoints" : [ 62.25, 92.0, 26.5, 92.0 ],
									"source" : [ "obj-16", 0 ]
								}

							}
, 							{
								"patchline" : 								{
									"destination" : [ "obj-1", 1 ],
									"disabled" : 0,
									"hidden" : 0,
									"source" : [ "obj-17", 0 ]
								}

							}
, 							{
								"patchline" : 								{
									"destination" : [ "obj-4", 0 ],
									"disabled" : 0,
									"hidden" : 0,
									"source" : [ "obj-19", 0 ]
								}

							}
, 							{
								"patchline" : 								{
									"destination" : [ "obj-9", 1 ],
									"disabled" : 0,
									"hidden" : 0,
									"source" : [ "obj-2", 0 ]
								}

							}
, 							{
								"patchline" : 								{
									"destination" : [ "obj-39", 0 ],
									"disabled" : 0,
									"hidden" : 0,
									"source" : [ "obj-37", 0 ]
								}

							}
, 							{
								"patchline" : 								{
									"destination" : [ "obj-10", 0 ],
									"disabled" : 0,
									"hidden" : 0,
									"source" : [ "obj-39", 0 ]
								}

							}
, 							{
								"patchline" : 								{
									"destination" : [ "obj-2", 0 ],
									"disabled" : 0,
									"hidden" : 0,
									"source" : [ "obj-39", 0 ]
								}

							}
, 							{
								"patchline" : 								{
									"destination" : [ "obj-1", 0 ],
									"disabled" : 0,
									"hidden" : 0,
									"source" : [ "obj-4", 0 ]
								}

							}
, 							{
								"patchline" : 								{
									"destination" : [ "obj-7", 0 ],
									"disabled" : 0,
									"hidden" : 0,
									"source" : [ "obj-41", 0 ]
								}

							}
, 							{
								"patchline" : 								{
									"destination" : [ "obj-1", 2 ],
									"disabled" : 0,
									"hidden" : 0,
									"source" : [ "obj-44", 0 ]
								}

							}
, 							{
								"patchline" : 								{
									"destination" : [ "obj-6", 0 ],
									"disabled" : 0,
									"hidden" : 0,
									"source" : [ "obj-45", 0 ]
								}

							}
, 							{
								"patchline" : 								{
									"destination" : [ "obj-5", 0 ],
									"disabled" : 0,
									"hidden" : 0,
									"source" : [ "obj-46", 0 ]
								}

							}
, 							{
								"patchline" : 								{
									"destination" : [ "obj-37", 0 ],
									"disabled" : 0,
									"hidden" : 0,
									"source" : [ "obj-47", 0 ]
								}

							}
, 							{
								"patchline" : 								{
									"destination" : [ "obj-37", 1 ],
									"disabled" : 0,
									"hidden" : 0,
									"source" : [ "obj-48", 0 ]
								}

							}
, 							{
								"patchline" : 								{
									"destination" : [ "obj-1", 0 ],
									"disabled" : 0,
									"hidden" : 0,
									"source" : [ "obj-5", 0 ]
								}

							}
, 							{
								"patchline" : 								{
									"destination" : [ "obj-1", 0 ],
									"disabled" : 0,
									"hidden" : 0,
									"source" : [ "obj-6", 0 ]
								}

							}
, 							{
								"patchline" : 								{
									"destination" : [ "obj-1", 0 ],
									"disabled" : 0,
									"hidden" : 0,
									"source" : [ "obj-7", 0 ]
								}

							}
, 							{
								"patchline" : 								{
									"destination" : [ "obj-49", 0 ],
									"disabled" : 0,
									"hidden" : 0,
									"source" : [ "obj-8", 0 ]
								}

							}
, 							{
								"patchline" : 								{
									"destination" : [ "obj-49", 0 ],
									"disabled" : 0,
									"hidden" : 0,
									"source" : [ "obj-9", 0 ]
								}

							}
 ],
						"styles" : [ 							{
								"name" : "AudioStatus_Menu",
								"default" : 								{
									"bgfillcolor" : 									{
										"type" : "color",
										"color" : [ 0.294118, 0.313726, 0.337255, 1 ],
										"color1" : [ 0.454902, 0.462745, 0.482353, 0.0 ],
										"color2" : [ 0.290196, 0.309804, 0.301961, 1.0 ],
										"angle" : 270.0,
										"proportion" : 0.39,
										"autogradient" : 0
									}

								}
,
								"parentstyle" : "",
								"multi" : 0
							}
, 							{
								"name" : "Luca",
								"default" : 								{
									"selectioncolor" : [ 0.720698, 0.16723, 0.080014, 1.0 ],
									"fontname" : [ "Open Sans Semibold" ],
									"color" : [ 0.475135, 0.293895, 0.251069, 1.0 ],
									"textcolor_inverse" : [ 0.239216, 0.254902, 0.278431, 1.0 ],
									"accentcolor" : [ 0.32549, 0.345098, 0.372549, 1.0 ],
									"elementcolor" : [ 0.786675, 0.801885, 0.845022, 1.0 ],
									"bgcolor" : [ 0.904179, 0.895477, 0.842975, 0.56 ],
									"bgfillcolor" : 									{
										"type" : "gradient",
										"color" : [ 0.290196, 0.309804, 0.301961, 1.0 ],
										"color1" : [ 0.862745, 0.870588, 0.878431, 1.0 ],
										"color2" : [ 0.65098, 0.666667, 0.662745, 1.0 ],
										"angle" : 270.0,
										"proportion" : 0.39,
										"autogradient" : 0
									}

								}
,
								"parentstyle" : "",
								"multi" : 0
							}
, 							{
								"name" : "dark-night-patch",
								"default" : 								{
									"textcolor" : [ 0.862745, 0.870588, 0.878431, 1.0 ],
									"patchlinecolor" : [ 0.439216, 0.74902, 0.254902, 0.898039 ],
									"accentcolor" : [ 0.952941, 0.564706, 0.098039, 1.0 ],
									"bgfillcolor" : 									{
										"type" : "gradient",
										"color1" : [ 0.376471, 0.384314, 0.4, 1.0 ],
										"color2" : [ 0.290196, 0.309804, 0.301961, 1.0 ],
										"color" : [ 0.290196, 0.309804, 0.301961, 1.0 ],
										"angle" : 270.0,
										"proportion" : 0.39
									}

								}
,
								"parentstyle" : "",
								"multi" : 0
							}
, 							{
								"name" : "newobjBlue-1",
								"default" : 								{
									"accentcolor" : [ 0.317647, 0.654902, 0.976471, 1.0 ]
								}
,
								"parentstyle" : "",
								"multi" : 0
							}
, 							{
								"name" : "newobjGreen-1",
								"default" : 								{
									"accentcolor" : [ 0.0, 0.533333, 0.168627, 1.0 ]
								}
,
								"parentstyle" : "",
								"multi" : 0
							}
, 							{
								"name" : "newobjRed-1",
								"default" : 								{
									"accentcolor" : [ 0.784314, 0.145098, 0.023529, 1.0 ]
								}
,
								"parentstyle" : "",
								"multi" : 0
							}
, 							{
								"name" : "newobjYellow-1",
								"default" : 								{
									"fontsize" : [ 12.059008 ],
									"accentcolor" : [ 0.82517, 0.78181, 0.059545, 1.0 ]
								}
,
								"parentstyle" : "",
								"multi" : 0
							}
, 							{
								"name" : "newobjYellow-2",
								"default" : 								{
									"fontsize" : [ 12.059008 ],
									"accentcolor" : [ 0.82517, 0.78181, 0.059545, 1.0 ]
								}
,
								"parentstyle" : "",
								"multi" : 0
							}
, 							{
								"name" : "numberGold-1",
								"default" : 								{
									"accentcolor" : [ 0.764706, 0.592157, 0.101961, 1.0 ]
								}
,
								"parentstyle" : "",
								"multi" : 0
							}
 ]
					}
,
					"patching_rect" : [ 59.5, 456.0, 255.5, 22.0 ],
					"saved_object_attributes" : 					{
						"description" : "",
						"digest" : "",
						"globalpatchername" : "",
						"style" : "",
						"tags" : ""
					}
,
					"style" : "",
					"text" : "p the_delay"
				}

			}
, 			{
				"box" : 				{
					"comment" : "Dummy",
					"id" : "obj-36",
					"maxclass" : "inlet",
					"numinlets" : 0,
					"numoutlets" : 1,
					"outlettype" : [ "" ],
					"patching_rect" : [ 226.5, 257.0, 30.0, 30.0 ],
					"style" : ""
				}

			}
, 			{
				"box" : 				{
					"id" : "obj-3",
					"maxclass" : "newobj",
					"numinlets" : 1,
					"numoutlets" : 4,
					"outlettype" : [ "", "", "", "" ],
					"patching_rect" : [ 313.0, 296.0, 58.0, 22.0 ],
					"restore" : 					{
						"live.dial[1]" : [ 0.0 ],
						"live.dial[2]" : [ 0.0 ],
						"live.dial[3]" : [ 0.0 ],
						"live.dial[4]" : [ 0.0 ],
						"live.dial[5]" : [ 0.0 ]
					}
,
					"style" : "",
					"text" : "autopattr",
					"varname" : "u332000353"
				}

			}
, 			{
				"box" : 				{
					"bubbleside" : 0,
					"bubbletextmargin" : 0,
					"fontname" : "Century Gothic",
					"fontsize" : 10.0,
					"id" : "obj-10",
					"maxclass" : "comment",
					"numinlets" : 1,
					"numoutlets" : 0,
					"patching_rect" : [ 184.5, -2.5, 54.0, 19.0 ],
					"presentation" : 1,
					"presentation_rect" : [ 184.5, -2.5, 54.0, 19.0 ],
					"style" : "",
					"text" : "WCV",
					"textjustification" : 1
				}

			}
, 			{
				"box" : 				{
					"bubbleside" : 0,
					"bubbletextmargin" : 0,
					"fontname" : "Century Gothic",
					"fontsize" : 10.0,
					"id" : "obj-11",
					"maxclass" : "comment",
					"numinlets" : 1,
					"numoutlets" : 0,
					"patching_rect" : [ 135.5, -2.5, 54.0, 19.0 ],
					"presentation" : 1,
					"presentation_rect" : [ 135.5, -2.5, 54.0, 19.0 ],
					"style" : "",
					"text" : "FCV",
					"textjustification" : 1
				}

			}
, 			{
				"box" : 				{
					"bubbleside" : 0,
					"bubbletextmargin" : 0,
					"fontname" : "Century Gothic",
					"fontsize" : 10.0,
					"id" : "obj-9",
					"maxclass" : "comment",
					"numinlets" : 1,
					"numoutlets" : 0,
					"patching_rect" : [ 84.5, -2.5, 54.0, 19.0 ],
					"presentation" : 1,
					"presentation_rect" : [ 84.5, -2.5, 54.0, 19.0 ],
					"style" : "",
					"text" : "TCV",
					"textjustification" : 1
				}

			}
, 			{
				"box" : 				{
					"comment" : "FCV",
					"id" : "obj-31",
					"maxclass" : "inlet",
					"numinlets" : 0,
					"numoutlets" : 1,
					"outlettype" : [ "" ],
					"patching_rect" : [ 144.5, 257.0, 30.0, 30.0 ],
					"style" : ""
				}

			}
, 			{
				"box" : 				{
					"comment" : "Dummy",
					"id" : "obj-30",
					"maxclass" : "outlet",
					"numinlets" : 1,
					"numoutlets" : 0,
					"patching_rect" : [ 95.5, 534.0, 30.0, 30.0 ],
					"style" : ""
				}

			}
, 			{
				"box" : 				{
					"comment" : "Output",
					"id" : "obj-28",
					"maxclass" : "outlet",
					"numinlets" : 1,
					"numoutlets" : 0,
					"patching_rect" : [ 59.5, 534.0, 30.0, 30.0 ],
					"style" : ""
				}

			}
, 			{
				"box" : 				{
					"comment" : "WCV",
					"id" : "obj-27",
					"maxclass" : "inlet",
					"numinlets" : 0,
					"numoutlets" : 1,
					"outlettype" : [ "" ],
					"patching_rect" : [ 188.5, 257.0, 30.0, 30.0 ],
					"style" : ""
				}

			}
, 			{
				"box" : 				{
					"comment" : "TCV",
					"id" : "obj-25",
					"maxclass" : "inlet",
					"numinlets" : 0,
					"numoutlets" : 1,
					"outlettype" : [ "" ],
					"patching_rect" : [ 100.9375, 257.0, 30.0, 30.0 ],
					"style" : ""
				}

			}
, 			{
				"box" : 				{
					"comment" : "Audio In",
					"id" : "obj-22",
					"maxclass" : "inlet",
					"numinlets" : 0,
					"numoutlets" : 1,
					"outlettype" : [ "" ],
					"patching_rect" : [ 59.5, 257.0, 30.0, 30.0 ],
					"style" : ""
				}

			}
, 			{
				"box" : 				{
					"comment" : "Dummy",
					"id" : "obj-21",
					"maxclass" : "inlet",
					"numinlets" : 0,
					"numoutlets" : 1,
					"outlettype" : [ "" ],
					"patching_rect" : [ 22.0, 257.0, 30.0, 30.0 ],
					"style" : ""
				}

			}
, 			{
				"box" : 				{
					"bubbleside" : 0,
					"bubbletextmargin" : 2,
					"fontname" : "Century Gothic",
					"fontsize" : 13.0,
					"id" : "obj-24",
					"maxclass" : "comment",
					"numinlets" : 1,
					"numoutlets" : 0,
					"patching_rect" : [ -2.0, -2.5, 58.0, 22.0 ],
					"presentation" : 1,
					"presentation_rect" : [ 0.0, -2.5, 58.0, 22.0 ],
					"style" : "",
					"text" : "DELAY"
				}

			}
, 			{
				"box" : 				{
					"comment" : "Dummy",
					"id" : "obj-34",
					"maxclass" : "outlet",
					"numinlets" : 1,
					"numoutlets" : 0,
					"patching_rect" : [ 24.0, 534.0, 30.0, 30.0 ],
					"style" : ""
				}

			}
, 			{
				"box" : 				{
					"bubbleside" : 0,
					"bubbletextmargin" : 0,
					"fontname" : "Century Gothic",
					"fontsize" : 10.0,
					"id" : "obj-13",
					"maxclass" : "comment",
					"numinlets" : 1,
					"numoutlets" : 0,
					"patching_rect" : [ 35.5, -2.5, 54.0, 19.0 ],
					"presentation" : 1,
					"presentation_rect" : [ 40.5, -2.5, 54.0, 19.0 ],
					"style" : "",
					"text" : "Audio In",
					"textjustification" : 1
				}

			}
, 			{
				"box" : 				{
					"bubbleside" : 2,
					"bubbletextmargin" : 0,
					"fontname" : "Century Gothic",
					"fontsize" : 10.0,
					"id" : "obj-40",
					"maxclass" : "comment",
					"numinlets" : 1,
					"numoutlets" : 0,
					"patching_rect" : [ 107.5, 64.5, 52.0, 19.0 ],
					"presentation" : 1,
					"presentation_rect" : [ 107.5, 64.5, 52.0, 19.0 ],
					"style" : "",
					"text" : "Output",
					"textjustification" : 1
				}

			}
, 			{
				"box" : 				{
					"autofit" : 1,
					"id" : "obj-60",
					"maxclass" : "fpic",
					"numinlets" : 1,
					"numoutlets" : 1,
					"outlettype" : [ "jit_matrix" ],
					"patching_rect" : [ -2.5, -105.997513, 484.0, 310.292542 ],
					"pic" : "bbronze.jpg",
					"presentation" : 1,
					"presentation_rect" : [ -1.0, -104.997513, 484.0, 310.292542 ]
				}

			}
 ],
		"lines" : [ 			{
				"patchline" : 				{
					"destination" : [ "obj-8", 0 ],
					"disabled" : 0,
					"hidden" : 0,
					"source" : [ "obj-1", 0 ]
				}

			}
, 			{
				"patchline" : 				{
					"destination" : [ "obj-6", 0 ],
					"disabled" : 0,
					"hidden" : 0,
					"source" : [ "obj-12", 0 ]
				}

			}
, 			{
				"patchline" : 				{
					"destination" : [ "obj-38", 0 ],
					"disabled" : 0,
					"hidden" : 0,
					"source" : [ "obj-123", 0 ]
				}

			}
, 			{
				"patchline" : 				{
					"destination" : [ "obj-50", 2 ],
					"disabled" : 0,
					"hidden" : 0,
					"source" : [ "obj-14", 0 ]
				}

			}
, 			{
				"patchline" : 				{
					"destination" : [ "obj-50", 6 ],
					"disabled" : 0,
					"hidden" : 0,
					"source" : [ "obj-15", 0 ]
				}

			}
, 			{
				"patchline" : 				{
					"destination" : [ "obj-56", 0 ],
					"disabled" : 0,
					"hidden" : 0,
					"source" : [ "obj-16", 1 ]
				}

			}
, 			{
				"patchline" : 				{
					"destination" : [ "obj-56", 0 ],
					"disabled" : 0,
					"hidden" : 0,
					"source" : [ "obj-17", 1 ]
				}

			}
, 			{
				"patchline" : 				{
					"destination" : [ "obj-16", 0 ],
					"disabled" : 0,
					"hidden" : 0,
					"source" : [ "obj-18", 0 ]
				}

			}
, 			{
				"patchline" : 				{
					"destination" : [ "obj-17", 0 ],
					"disabled" : 0,
					"hidden" : 0,
					"source" : [ "obj-18", 0 ]
				}

			}
, 			{
				"patchline" : 				{
					"destination" : [ "obj-76", 0 ],
					"disabled" : 0,
					"hidden" : 0,
					"source" : [ "obj-18", 0 ]
				}

			}
, 			{
				"patchline" : 				{
					"destination" : [ "obj-80", 0 ],
					"disabled" : 0,
					"hidden" : 0,
					"source" : [ "obj-18", 0 ]
				}

			}
, 			{
				"patchline" : 				{
					"destination" : [ "obj-81", 0 ],
					"disabled" : 0,
					"hidden" : 0,
					"source" : [ "obj-18", 0 ]
				}

			}
, 			{
				"patchline" : 				{
					"destination" : [ "obj-96", 0 ],
					"disabled" : 0,
					"hidden" : 0,
					"source" : [ "obj-19", 1 ]
				}

			}
, 			{
				"patchline" : 				{
					"destination" : [ "obj-50", 8 ],
					"disabled" : 0,
					"hidden" : 0,
					"source" : [ "obj-2", 0 ]
				}

			}
, 			{
				"patchline" : 				{
					"destination" : [ "obj-29", 0 ],
					"disabled" : 0,
					"hidden" : 0,
					"source" : [ "obj-20", 0 ]
				}

			}
, 			{
				"patchline" : 				{
					"destination" : [ "obj-50", 0 ],
					"disabled" : 0,
					"hidden" : 0,
					"source" : [ "obj-22", 0 ]
				}

			}
, 			{
				"patchline" : 				{
					"destination" : [ "obj-77", 0 ],
					"disabled" : 0,
					"hidden" : 0,
					"source" : [ "obj-22", 0 ]
				}

			}
, 			{
				"patchline" : 				{
					"destination" : [ "obj-50", 1 ],
					"disabled" : 0,
					"hidden" : 0,
					"source" : [ "obj-25", 0 ]
				}

			}
, 			{
				"patchline" : 				{
					"destination" : [ "obj-50", 7 ],
					"disabled" : 0,
					"hidden" : 0,
					"source" : [ "obj-27", 0 ]
				}

			}
, 			{
				"patchline" : 				{
					"destination" : [ "obj-50", 4 ],
					"disabled" : 0,
					"hidden" : 0,
					"source" : [ "obj-31", 0 ]
				}

			}
, 			{
				"patchline" : 				{
					"destination" : [ "obj-48", 0 ],
					"disabled" : 0,
					"hidden" : 0,
					"source" : [ "obj-32", 0 ]
				}

			}
, 			{
				"patchline" : 				{
					"destination" : [ "obj-56", 0 ],
					"disabled" : 0,
					"hidden" : 0,
					"source" : [ "obj-32", 1 ]
				}

			}
, 			{
				"patchline" : 				{
					"destination" : [ "obj-32", 0 ],
					"disabled" : 0,
					"hidden" : 0,
					"source" : [ "obj-38", 0 ]
				}

			}
, 			{
				"patchline" : 				{
					"destination" : [ "obj-50", 5 ],
					"disabled" : 0,
					"hidden" : 0,
					"source" : [ "obj-4", 0 ]
				}

			}
, 			{
				"patchline" : 				{
					"destination" : [ "obj-50", 3 ],
					"disabled" : 0,
					"hidden" : 0,
					"source" : [ "obj-5", 0 ]
				}

			}
, 			{
				"patchline" : 				{
					"destination" : [ "obj-52", 0 ],
					"disabled" : 0,
					"hidden" : 0,
					"source" : [ "obj-50", 0 ]
				}

			}
, 			{
				"patchline" : 				{
					"destination" : [ "obj-28", 0 ],
					"disabled" : 0,
					"hidden" : 0,
					"source" : [ "obj-52", 0 ]
				}

			}
, 			{
				"patchline" : 				{
					"destination" : [ "obj-1", 0 ],
					"disabled" : 0,
					"hidden" : 0,
					"source" : [ "obj-6", 0 ]
				}

			}
, 			{
				"patchline" : 				{
					"destination" : [ "obj-7", 0 ],
					"disabled" : 0,
					"hidden" : 0,
					"source" : [ "obj-6", 0 ]
				}

			}
, 			{
				"patchline" : 				{
					"destination" : [ "obj-29", 0 ],
					"disabled" : 0,
					"hidden" : 0,
					"source" : [ "obj-7", 0 ]
				}

			}
, 			{
				"patchline" : 				{
					"destination" : [ "obj-56", 0 ],
					"disabled" : 0,
					"hidden" : 0,
					"source" : [ "obj-76", 1 ]
				}

			}
, 			{
				"patchline" : 				{
					"destination" : [ "obj-82", 0 ],
					"disabled" : 0,
					"hidden" : 0,
					"source" : [ "obj-77", 0 ]
				}

			}
, 			{
				"patchline" : 				{
					"destination" : [ "obj-50", 0 ],
					"disabled" : 0,
					"hidden" : 0,
					"source" : [ "obj-79", 0 ]
				}

			}
, 			{
				"patchline" : 				{
					"destination" : [ "obj-56", 0 ],
					"disabled" : 0,
					"hidden" : 0,
					"source" : [ "obj-80", 1 ]
				}

			}
, 			{
				"patchline" : 				{
					"destination" : [ "obj-56", 0 ],
					"disabled" : 0,
					"hidden" : 0,
					"source" : [ "obj-81", 1 ]
				}

			}
, 			{
				"patchline" : 				{
					"destination" : [ "obj-79", 0 ],
					"disabled" : 0,
					"hidden" : 0,
					"source" : [ "obj-82", 0 ]
				}

			}
, 			{
				"patchline" : 				{
					"destination" : [ "obj-79", 0 ],
					"disabled" : 0,
					"hidden" : 0,
					"source" : [ "obj-83", 0 ]
				}

			}
, 			{
				"patchline" : 				{
					"destination" : [ "obj-32", 0 ],
					"disabled" : 0,
					"hidden" : 0,
					"source" : [ "obj-96", 1 ]
				}

			}
, 			{
				"patchline" : 				{
					"destination" : [ "obj-37", 0 ],
					"disabled" : 0,
					"hidden" : 0,
					"source" : [ "obj-96", 0 ]
				}

			}
 ],
		"parameters" : 		{
			"obj-4" : [ "live.dial[109]", "Feed CV", 0 ],
			"obj-15" : [ "live.dial[106]", "Time", 0 ],
			"obj-5" : [ "live.dial[108]", "Feedback", 0 ],
			"obj-14" : [ "live.dial[105]", "Time CV", 0 ],
			"obj-2" : [ "live.dial[107]", "Wet", 0 ]
		}
,
		"dependency_cache" : [ 			{
				"name" : "bbronze.jpg",
				"bootpath" : "~/Documents/Project MODULATE!/Repository/Modulate-Synth/Lib/Max 7/Library/Modulate",
				"patcherrelativepath" : ".",
				"type" : "JPEG",
				"implicit" : 1
			}
, 			{
				"name" : "delgen.gendsp",
				"bootpath" : "~/Documents/Project MODULATE!/Repository/Modulate-Synth/Lib/Max 7/Library/Modulate",
				"patcherrelativepath" : ".",
				"type" : "gDSP",
				"implicit" : 1
			}
, 			{
				"name" : "size.js",
				"bootpath" : "~/Documents/Project MODULATE!/Repository/Modulate-Synth/Lib/Max 7/Library/Modulate",
				"patcherrelativepath" : ".",
				"type" : "TEXT",
				"implicit" : 1
			}
, 			{
				"name" : "click.js",
				"bootpath" : "~/Documents/Project MODULATE!/Repository/Modulate-Synth/Lib/Max 7/Library/Modulate",
				"patcherrelativepath" : ".",
				"type" : "TEXT",
				"implicit" : 1
			}
, 			{
				"name" : "sigmsg.js",
				"bootpath" : "~/Documents/Project MODULATE!/Repository/Modulate-Synth/Lib/Max 7/Library/Modulate",
				"patcherrelativepath" : ".",
				"type" : "TEXT",
				"implicit" : 1
			}
 ],
		"embedsnapshot" : 0,
		"styles" : [ 			{
				"name" : "AudioStatus_Menu",
				"default" : 				{
					"bgfillcolor" : 					{
						"type" : "color",
						"color" : [ 0.294118, 0.313726, 0.337255, 1 ],
						"color1" : [ 0.454902, 0.462745, 0.482353, 0.0 ],
						"color2" : [ 0.290196, 0.309804, 0.301961, 1.0 ],
						"angle" : 270.0,
						"proportion" : 0.39,
						"autogradient" : 0
					}

				}
,
				"parentstyle" : "",
				"multi" : 0
			}
, 			{
				"name" : "Luca",
				"default" : 				{
					"selectioncolor" : [ 0.720698, 0.16723, 0.080014, 1.0 ],
					"fontname" : [ "Open Sans Semibold" ],
					"color" : [ 0.475135, 0.293895, 0.251069, 1.0 ],
					"textcolor_inverse" : [ 0.239216, 0.254902, 0.278431, 1.0 ],
					"accentcolor" : [ 0.32549, 0.345098, 0.372549, 1.0 ],
					"elementcolor" : [ 0.786675, 0.801885, 0.845022, 1.0 ],
					"bgcolor" : [ 0.904179, 0.895477, 0.842975, 0.56 ],
					"bgfillcolor" : 					{
						"type" : "gradient",
						"color" : [ 0.290196, 0.309804, 0.301961, 1.0 ],
						"color1" : [ 0.862745, 0.870588, 0.878431, 1.0 ],
						"color2" : [ 0.65098, 0.666667, 0.662745, 1.0 ],
						"angle" : 270.0,
						"proportion" : 0.39,
						"autogradient" : 0
					}

				}
,
				"parentstyle" : "",
				"multi" : 0
			}
, 			{
				"name" : "dark-night-patch",
				"default" : 				{
					"textcolor" : [ 0.862745, 0.870588, 0.878431, 1.0 ],
					"patchlinecolor" : [ 0.439216, 0.74902, 0.254902, 0.898039 ],
					"accentcolor" : [ 0.952941, 0.564706, 0.098039, 1.0 ],
					"bgfillcolor" : 					{
						"type" : "gradient",
						"color1" : [ 0.376471, 0.384314, 0.4, 1.0 ],
						"color2" : [ 0.290196, 0.309804, 0.301961, 1.0 ],
						"color" : [ 0.290196, 0.309804, 0.301961, 1.0 ],
						"angle" : 270.0,
						"proportion" : 0.39
					}

				}
,
				"parentstyle" : "",
				"multi" : 0
			}
, 			{
				"name" : "newobjBlue-1",
				"default" : 				{
					"accentcolor" : [ 0.317647, 0.654902, 0.976471, 1.0 ]
				}
,
				"parentstyle" : "",
				"multi" : 0
			}
, 			{
				"name" : "newobjGreen-1",
				"default" : 				{
					"accentcolor" : [ 0.0, 0.533333, 0.168627, 1.0 ]
				}
,
				"parentstyle" : "",
				"multi" : 0
			}
, 			{
				"name" : "newobjRed-1",
				"default" : 				{
					"accentcolor" : [ 0.784314, 0.145098, 0.023529, 1.0 ]
				}
,
				"parentstyle" : "",
				"multi" : 0
			}
, 			{
				"name" : "newobjYellow-1",
				"default" : 				{
					"fontsize" : [ 12.059008 ],
					"accentcolor" : [ 0.82517, 0.78181, 0.059545, 1.0 ]
				}
,
				"parentstyle" : "",
				"multi" : 0
			}
, 			{
				"name" : "newobjYellow-2",
				"default" : 				{
					"fontsize" : [ 12.059008 ],
					"accentcolor" : [ 0.82517, 0.78181, 0.059545, 1.0 ]
				}
,
				"parentstyle" : "",
				"multi" : 0
			}
, 			{
				"name" : "numberGold-1",
				"default" : 				{
					"accentcolor" : [ 0.764706, 0.592157, 0.101961, 1.0 ]
				}
,
				"parentstyle" : "",
				"multi" : 0
			}
 ]
	}

}
