{
	"patcher" : 	{
		"fileversion" : 1,
		"appversion" : 		{
			"major" : 7,
			"minor" : 0,
			"revision" : 0,
			"architecture" : "x64",
			"modernui" : 1
		}
,
		"rect" : [ 460.0, 114.0, 718.0, 536.0 ],
		"bglocked" : 0,
		"openinpresentation" : 1,
		"default_fontsize" : 12.0,
		"default_fontface" : 0,
		"default_fontname" : "Arial",
		"gridonopen" : 1,
		"gridsize" : [ 15.0, 15.0 ],
		"gridsnaponopen" : 1,
		"objectsnaponopen" : 1,
		"statusbarvisible" : 2,
		"toolbarvisible" : 1,
		"lefttoolbarpinned" : 0,
		"toptoolbarpinned" : 0,
		"righttoolbarpinned" : 0,
		"bottomtoolbarpinned" : 0,
		"toolbars_unpinned_last_save" : 0,
		"tallnewobj" : 0,
		"boxanimatetime" : 200,
		"enablehscroll" : 1,
		"enablevscroll" : 1,
		"devicewidth" : 0.0,
		"description" : "",
		"digest" : "",
		"tags" : "",
		"style" : "",
		"subpatcher_template" : "",
		"boxes" : [ 			{
				"box" : 				{
					"id" : "obj-71",
					"maxclass" : "newobj",
					"numinlets" : 2,
					"numoutlets" : 1,
					"outlettype" : [ "" ],
					"patcher" : 					{
						"fileversion" : 1,
						"appversion" : 						{
							"major" : 7,
							"minor" : 0,
							"revision" : 0,
							"architecture" : "x64",
							"modernui" : 1
						}
,
						"rect" : [ 59.0, 104.0, 278.0, 266.0 ],
						"bglocked" : 0,
						"openinpresentation" : 0,
						"default_fontsize" : 12.0,
						"default_fontface" : 0,
						"default_fontname" : "Arial",
						"gridonopen" : 1,
						"gridsize" : [ 15.0, 15.0 ],
						"gridsnaponopen" : 1,
						"objectsnaponopen" : 1,
						"statusbarvisible" : 2,
						"toolbarvisible" : 1,
						"lefttoolbarpinned" : 0,
						"toptoolbarpinned" : 0,
						"righttoolbarpinned" : 0,
						"bottomtoolbarpinned" : 0,
						"toolbars_unpinned_last_save" : 0,
						"tallnewobj" : 0,
						"boxanimatetime" : 200,
						"enablehscroll" : 1,
						"enablevscroll" : 1,
						"devicewidth" : 0.0,
						"description" : "",
						"digest" : "",
						"tags" : "",
						"style" : "",
						"subpatcher_template" : "",
						"boxes" : [ 							{
								"box" : 								{
									"id" : "obj-48",
									"maxclass" : "newobj",
									"numinlets" : 2,
									"numoutlets" : 1,
									"outlettype" : [ "" ],
									"patching_rect" : [ 13.0, 85.0, 57.0, 22.0 ],
									"style" : "",
									"text" : "pak 0. 0."
								}

							}
, 							{
								"box" : 								{
									"id" : "obj-23",
									"linecount" : 2,
									"maxclass" : "newobj",
									"numinlets" : 2,
									"numoutlets" : 1,
									"outlettype" : [ "" ],
									"patching_rect" : [ 13.0, 114.0, 130.0, 35.0 ],
									"style" : "",
									"text" : "if ($f1==0. && $f2==0.) then 0 else 1"
								}

							}
, 							{
								"box" : 								{
									"id" : "obj-20",
									"maxclass" : "message",
									"numinlets" : 2,
									"numoutlets" : 1,
									"outlettype" : [ "" ],
									"patching_rect" : [ 13.0, 156.0, 63.0, 22.0 ],
									"style" : "",
									"text" : "enable $1"
								}

							}
, 							{
								"box" : 								{
									"id" : "obj-21",
									"maxclass" : "message",
									"numinlets" : 2,
									"numoutlets" : 1,
									"outlettype" : [ "" ],
									"patching_rect" : [ 202.0, 85.0, 57.0, 22.0 ],
									"style" : "",
									"text" : "amp2 $1"
								}

							}
, 							{
								"box" : 								{
									"id" : "obj-58",
									"maxclass" : "message",
									"numinlets" : 2,
									"numoutlets" : 1,
									"outlettype" : [ "" ],
									"patching_rect" : [ 144.0, 85.0, 51.0, 22.0 ],
									"style" : "",
									"text" : "amp $1"
								}

							}
, 							{
								"box" : 								{
									"comment" : "",
									"id" : "obj-68",
									"maxclass" : "inlet",
									"numinlets" : 0,
									"numoutlets" : 1,
									"outlettype" : [ "" ],
									"patching_rect" : [ 144.0, 25.0, 30.0, 30.0 ],
									"style" : ""
								}

							}
, 							{
								"box" : 								{
									"comment" : "",
									"id" : "obj-69",
									"maxclass" : "inlet",
									"numinlets" : 0,
									"numoutlets" : 1,
									"outlettype" : [ "" ],
									"patching_rect" : [ 202.0, 25.0, 30.0, 30.0 ],
									"style" : ""
								}

							}
, 							{
								"box" : 								{
									"comment" : "",
									"id" : "obj-70",
									"maxclass" : "outlet",
									"numinlets" : 1,
									"numoutlets" : 0,
									"patching_rect" : [ 144.0, 210.0, 30.0, 30.0 ],
									"style" : ""
								}

							}
 ],
						"lines" : [ 							{
								"patchline" : 								{
									"destination" : [ "obj-70", 0 ],
									"disabled" : 0,
									"hidden" : 0,
									"source" : [ "obj-20", 0 ]
								}

							}
, 							{
								"patchline" : 								{
									"destination" : [ "obj-70", 0 ],
									"disabled" : 0,
									"hidden" : 0,
									"source" : [ "obj-21", 0 ]
								}

							}
, 							{
								"patchline" : 								{
									"destination" : [ "obj-20", 0 ],
									"disabled" : 0,
									"hidden" : 0,
									"source" : [ "obj-23", 0 ]
								}

							}
, 							{
								"patchline" : 								{
									"destination" : [ "obj-23", 0 ],
									"disabled" : 0,
									"hidden" : 0,
									"source" : [ "obj-48", 0 ]
								}

							}
, 							{
								"patchline" : 								{
									"destination" : [ "obj-70", 0 ],
									"disabled" : 0,
									"hidden" : 0,
									"source" : [ "obj-58", 0 ]
								}

							}
, 							{
								"patchline" : 								{
									"destination" : [ "obj-48", 0 ],
									"disabled" : 0,
									"hidden" : 0,
									"source" : [ "obj-68", 0 ]
								}

							}
, 							{
								"patchline" : 								{
									"destination" : [ "obj-58", 0 ],
									"disabled" : 0,
									"hidden" : 0,
									"source" : [ "obj-68", 0 ]
								}

							}
, 							{
								"patchline" : 								{
									"destination" : [ "obj-21", 0 ],
									"disabled" : 0,
									"hidden" : 0,
									"source" : [ "obj-69", 0 ]
								}

							}
, 							{
								"patchline" : 								{
									"destination" : [ "obj-48", 1 ],
									"disabled" : 0,
									"hidden" : 0,
									"source" : [ "obj-69", 0 ]
								}

							}
 ]
					}
,
					"patching_rect" : [ 39.0, 296.0, 65.0, 22.0 ],
					"saved_object_attributes" : 					{
						"description" : "",
						"digest" : "",
						"globalpatchername" : "",
						"style" : "",
						"tags" : ""
					}
,
					"style" : "",
					"text" : "p savecpu"
				}

			}
, 			{
				"box" : 				{
					"id" : "obj-62",
					"justification" : 4,
					"linecolor" : [ 0.0, 0.0, 0.0, 1.0 ],
					"maxclass" : "live.line",
					"numinlets" : 1,
					"numoutlets" : 0,
					"patching_rect" : [ 119.5, 17.700001, 24.5, 9.0 ],
					"presentation" : 1,
					"presentation_rect" : [ 69.875, 14.700001, 18.625, 10.066128 ]
				}

			}
, 			{
				"box" : 				{
					"id" : "obj-55",
					"linecount" : 2,
					"maxclass" : "newobj",
					"numinlets" : 6,
					"numoutlets" : 1,
					"outlettype" : [ "" ],
					"patching_rect" : [ 125.25, 251.5, 130.0, 35.0 ],
					"style" : "",
					"text" : "scale 0. 100. 0. 100. 2 @classic 0"
				}

			}
, 			{
				"box" : 				{
					"bgcolor" : [ 0.290196, 0.309804, 0.301961, 0.0 ],
					"degrees" : 300,
					"floatoutput" : 1,
					"id" : "obj-56",
					"maxclass" : "dial",
					"mult" : 100.0,
					"needlecolor" : [ 0.862745, 0.870588, 0.878431, 1.0 ],
					"numinlets" : 1,
					"numoutlets" : 1,
					"outlettype" : [ "float" ],
					"outlinecolor" : [ 0.0, 0.019608, 0.078431, 1.0 ],
					"parameter_enable" : 0,
					"patching_rect" : [ 125.25, 223.146271, 16.0, 16.0 ],
					"presentation" : 1,
					"presentation_rect" : [ 166.774994, 9.766129, 16.0, 16.0 ],
					"size" : 1.0,
					"style" : "",
					"thickness" : 100.0,
					"varname" : "cv[1]"
				}

			}
, 			{
				"box" : 				{
					"angle" : 270.0,
					"bgcolor" : [ 0.0, 0.0, 0.0, 1.0 ],
					"id" : "obj-57",
					"maxclass" : "panel",
					"mode" : 0,
					"numinlets" : 1,
					"numoutlets" : 0,
					"patching_rect" : [ 170.5, 9.666668, 31.999996, 46.666664 ],
					"presentation" : 1,
					"presentation_rect" : [ 170.75, 13.700001, 8.0, 8.86935 ],
					"proportion" : 0.39,
					"rounded" : 50,
					"style" : ""
				}

			}
, 			{
				"box" : 				{
					"id" : "obj-52",
					"linecount" : 2,
					"maxclass" : "newobj",
					"numinlets" : 6,
					"numoutlets" : 1,
					"outlettype" : [ "" ],
					"patching_rect" : [ 301.5, 251.5, 130.0, 35.0 ],
					"style" : "",
					"text" : "scale 0. 100. 0. 100. 2 @classic 0"
				}

			}
, 			{
				"box" : 				{
					"bgcolor" : [ 0.290196, 0.309804, 0.301961, 0.0 ],
					"degrees" : 300,
					"floatoutput" : 1,
					"id" : "obj-112",
					"maxclass" : "dial",
					"mult" : 100.0,
					"needlecolor" : [ 0.862745, 0.870588, 0.878431, 1.0 ],
					"numinlets" : 1,
					"numoutlets" : 1,
					"outlettype" : [ "float" ],
					"outlinecolor" : [ 0.0, 0.019608, 0.078431, 1.0 ],
					"parameter_enable" : 0,
					"patching_rect" : [ 301.5, 223.146271, 16.0, 16.0 ],
					"presentation" : 1,
					"presentation_rect" : [ 84.774994, 9.766129, 16.0, 16.0 ],
					"size" : 1.0,
					"style" : "",
					"thickness" : 100.0,
					"varname" : "cv[8]"
				}

			}
, 			{
				"box" : 				{
					"angle" : 270.0,
					"bgcolor" : [ 0.0, 0.0, 0.0, 1.0 ],
					"id" : "obj-116",
					"maxclass" : "panel",
					"mode" : 0,
					"numinlets" : 1,
					"numoutlets" : 0,
					"patching_rect" : [ 155.5, -5.333332, 31.999996, 46.666664 ],
					"presentation" : 1,
					"presentation_rect" : [ 88.75, 13.700001, 8.0, 8.86935 ],
					"proportion" : 0.39,
					"rounded" : 50,
					"style" : ""
				}

			}
, 			{
				"box" : 				{
					"activedialcolor" : [ 0.862745, 0.870588, 0.878431, 1.0 ],
					"appearance" : 1,
					"focusbordercolor" : [ 0.0, 0.019608, 0.078431, 0.0 ],
					"fontface" : 0,
					"fontname" : "Century Gothic",
					"fontsize" : 11.0,
					"id" : "obj-46",
					"maxclass" : "live.dial",
					"numinlets" : 1,
					"numoutlets" : 2,
					"outlettype" : [ "", "float" ],
					"parameter_enable" : 1,
					"patching_rect" : [ 39.0, 257.0, 25.0, 24.0 ],
					"presentation" : 1,
					"presentation_rect" : [ 12.0, 17.148758, 25.0, 24.0 ],
					"saved_attribute_attributes" : 					{
						"valueof" : 						{
							"parameter_longname" : "live.dial[5]",
							"parameter_shortname" : "Rate",
							"parameter_type" : 0,
							"parameter_mmax" : 1.0,
							"parameter_initial_enable" : 1,
							"parameter_initial" : [ 1.0 ],
							"parameter_unitstyle" : 0,
							"parameter_exponent" : 2.0
						}

					}
,
					"showname" : 0,
					"shownumber" : 0,
					"varname" : "live.dial[5]"
				}

			}
, 			{
				"box" : 				{
					"activedialcolor" : [ 0.862745, 0.870588, 0.878431, 1.0 ],
					"appearance" : 1,
					"focusbordercolor" : [ 0.0, 0.019608, 0.078431, 0.0 ],
					"fontface" : 0,
					"fontname" : "Century Gothic",
					"fontsize" : 11.0,
					"id" : "obj-45",
					"maxclass" : "live.dial",
					"numinlets" : 1,
					"numoutlets" : 2,
					"outlettype" : [ "", "float" ],
					"parameter_enable" : 1,
					"patching_rect" : [ 85.0, 257.0, 25.0, 24.0 ],
					"presentation" : 1,
					"presentation_rect" : [ 231.875, 17.148758, 25.0, 24.0 ],
					"saved_attribute_attributes" : 					{
						"valueof" : 						{
							"parameter_longname" : "live.dial[4]",
							"parameter_shortname" : "Rate",
							"parameter_type" : 0,
							"parameter_mmax" : 1.0,
							"parameter_initial_enable" : 1,
							"parameter_initial" : [ 1.0 ],
							"parameter_unitstyle" : 0,
							"parameter_exponent" : 2.0
						}

					}
,
					"showname" : 0,
					"shownumber" : 0,
					"varname" : "live.dial[3]"
				}

			}
, 			{
				"box" : 				{
					"id" : "obj-43",
					"linecolor" : [ 0.0, 0.0, 0.0, 1.0 ],
					"maxclass" : "live.line",
					"numinlets" : 1,
					"numoutlets" : 0,
					"patching_rect" : [ 134.5, 66.0, 24.5, 9.0 ],
					"presentation" : 1,
					"presentation_rect" : [ 133.5, 38.0, 5.0, 41.0 ]
				}

			}
, 			{
				"box" : 				{
					"id" : "obj-42",
					"linecolor" : [ 0.0, 0.0, 0.0, 1.0 ],
					"maxclass" : "live.line",
					"numinlets" : 1,
					"numoutlets" : 0,
					"patching_rect" : [ 133.5, 2.0, 24.5, 9.0 ],
					"presentation" : 1,
					"presentation_rect" : [ 133.5, -19.0, 5.0, 41.0 ]
				}

			}
, 			{
				"box" : 				{
					"fontname" : "Century Gothic",
					"fontsize" : 11.0,
					"id" : "obj-34",
					"maxclass" : "comment",
					"numinlets" : 1,
					"numoutlets" : 0,
					"patching_rect" : [ 214.5, 4.0, 34.0, 20.0 ],
					"presentation" : 1,
					"presentation_rect" : [ 228.375, 1.0, 34.0, 20.0 ],
					"style" : "",
					"text" : "Amp"
				}

			}
, 			{
				"box" : 				{
					"id" : "obj-13",
					"justification" : 3,
					"linecolor" : [ 0.0, 0.0, 0.0, 1.0 ],
					"maxclass" : "live.line",
					"numinlets" : 1,
					"numoutlets" : 0,
					"patching_rect" : [ 155.5, 47.5, 24.5, 9.0 ],
					"presentation" : 1,
					"presentation_rect" : [ 178.5, 14.700001, 18.625, 10.066128 ]
				}

			}
, 			{
				"box" : 				{
					"id" : "obj-9",
					"linecolor" : [ 0.0, 0.0, 0.0, 1.0 ],
					"maxclass" : "live.line",
					"numinlets" : 1,
					"numoutlets" : 0,
					"patching_rect" : [ 129.0, 47.5, 24.5, 9.0 ],
					"presentation" : 1,
					"presentation_rect" : [ 174.5, 3.0, 5.0, 7.0 ]
				}

			}
, 			{
				"box" : 				{
					"autofit" : 1,
					"id" : "obj-38",
					"maxclass" : "fpic",
					"numinlets" : 1,
					"numoutlets" : 1,
					"outlettype" : [ "jit_matrix" ],
					"patching_rect" : [ 81.0, 72.0, 47.5, 23.0 ],
					"pic" : "random_w.svg",
					"presentation" : 1,
					"presentation_rect" : [ 163.875, 43.0, 22.5, 13.0 ]
				}

			}
, 			{
				"box" : 				{
					"autofit" : 1,
					"id" : "obj-39",
					"maxclass" : "fpic",
					"numinlets" : 1,
					"numoutlets" : 1,
					"outlettype" : [ "jit_matrix" ],
					"patching_rect" : [ 164.5, 72.0, 47.5, 23.0 ],
					"pic" : "randinterp_w.svg",
					"presentation" : 1,
					"presentation_rect" : [ 240.375, 43.0, 22.5, 13.0 ]
				}

			}
, 			{
				"box" : 				{
					"angle" : 270.0,
					"bgcolor" : [ 0.321569, 0.321569, 0.321569, 0.901961 ],
					"id" : "obj-40",
					"maxclass" : "panel",
					"mode" : 0,
					"numinlets" : 1,
					"numoutlets" : 0,
					"patching_rect" : [ 79.0, 71.0, 32.0, 32.0 ],
					"presentation" : 1,
					"presentation_rect" : [ 161.875, 43.0, 26.0, 19.0 ],
					"proportion" : 0.39,
					"style" : ""
				}

			}
, 			{
				"box" : 				{
					"angle" : 270.0,
					"bgcolor" : [ 0.321569, 0.321569, 0.321569, 0.901961 ],
					"id" : "obj-41",
					"maxclass" : "panel",
					"mode" : 0,
					"numinlets" : 1,
					"numoutlets" : 0,
					"patching_rect" : [ 163.0, 71.0, 40.0, 48.0 ],
					"presentation" : 1,
					"presentation_rect" : [ 237.875, 43.0, 26.0, 19.0 ],
					"proportion" : 0.39,
					"style" : ""
				}

			}
, 			{
				"box" : 				{
					"fontname" : "Century Gothic",
					"fontsize" : 11.0,
					"id" : "obj-29",
					"maxclass" : "comment",
					"numinlets" : 1,
					"numoutlets" : 0,
					"patching_rect" : [ 237.5, 34.0, 34.0, 20.0 ],
					"presentation" : 1,
					"presentation_rect" : [ 191.5, 31.5, 34.0, 20.0 ],
					"style" : "",
					"text" : "Rate"
				}

			}
, 			{
				"box" : 				{
					"comment" : "Interpolated Output",
					"id" : "obj-27",
					"maxclass" : "outlet",
					"numinlets" : 1,
					"numoutlets" : 0,
					"patching_rect" : [ 254.0, 381.0, 30.0, 30.0 ],
					"style" : ""
				}

			}
, 			{
				"box" : 				{
					"comment" : "Step Output",
					"id" : "obj-28",
					"maxclass" : "outlet",
					"numinlets" : 1,
					"numoutlets" : 0,
					"patching_rect" : [ 219.333328, 381.0, 30.0, 30.0 ],
					"style" : ""
				}

			}
, 			{
				"box" : 				{
					"comment" : "Rate CV",
					"id" : "obj-25",
					"maxclass" : "inlet",
					"numinlets" : 0,
					"numoutlets" : 1,
					"outlettype" : [ "" ],
					"patching_rect" : [ 219.333328, 202.646271, 30.0, 30.0 ],
					"style" : ""
				}

			}
, 			{
				"box" : 				{
					"id" : "obj-18",
					"maxclass" : "message",
					"numinlets" : 2,
					"numoutlets" : 1,
					"outlettype" : [ "" ],
					"patching_rect" : [ 301.5, 296.0, 50.0, 22.0 ],
					"style" : "",
					"text" : "rcv2 $1"
				}

			}
, 			{
				"box" : 				{
					"activedialcolor" : [ 0.862745, 0.870588, 0.878431, 1.0 ],
					"focusbordercolor" : [ 0.0, 0.019608, 0.078431, 0.0 ],
					"fontface" : 0,
					"fontname" : "Century Gothic",
					"fontsize" : 11.0,
					"id" : "obj-22",
					"maxclass" : "live.dial",
					"numinlets" : 1,
					"numoutlets" : 2,
					"outlettype" : [ "", "float" ],
					"parameter_enable" : 1,
					"patching_rect" : [ 254.0, 291.0, 34.0, 27.0 ],
					"presentation" : 1,
					"presentation_rect" : [ 190.5, 8.5, 34.0, 27.0 ],
					"saved_attribute_attributes" : 					{
						"valueof" : 						{
							"parameter_longname" : "live.dial[3]",
							"parameter_shortname" : "Rate",
							"parameter_type" : 0,
							"parameter_mmin" : 0.03,
							"parameter_mmax" : 100.0,
							"parameter_initial_enable" : 1,
							"parameter_initial" : [ 1.0 ],
							"parameter_unitstyle" : 0,
							"parameter_exponent" : 3.0
						}

					}
,
					"showname" : 0,
					"shownumber" : 0,
					"varname" : "live.dial[4]"
				}

			}
, 			{
				"box" : 				{
					"fontname" : "Century Gothic",
					"fontsize" : 11.0,
					"id" : "obj-11",
					"maxclass" : "comment",
					"numinlets" : 1,
					"numoutlets" : 0,
					"patching_rect" : [ 198.5, 35.0, 34.0, 20.0 ],
					"presentation" : 1,
					"presentation_rect" : [ 8.0, 1.0, 34.0, 20.0 ],
					"style" : "",
					"text" : "Amp"
				}

			}
, 			{
				"box" : 				{
					"fontname" : "Century Gothic",
					"fontsize" : 11.0,
					"id" : "obj-1",
					"maxclass" : "comment",
					"numinlets" : 1,
					"numoutlets" : 0,
					"patching_rect" : [ 33.0, 34.0, 34.0, 20.0 ],
					"presentation" : 1,
					"presentation_rect" : [ 43.5, 31.5, 34.0, 20.0 ],
					"style" : "",
					"text" : "Rate"
				}

			}
, 			{
				"box" : 				{
					"id" : "obj-66",
					"linecolor" : [ 0.0, 0.0, 0.0, 1.0 ],
					"maxclass" : "live.line",
					"numinlets" : 1,
					"numoutlets" : 0,
					"patching_rect" : [ 198.0, 65.5, 24.5, 9.0 ],
					"presentation" : 1,
					"presentation_rect" : [ 91.5, 3.0, 5.0, 7.0 ]
				}

			}
, 			{
				"box" : 				{
					"id" : "obj-61",
					"maxclass" : "message",
					"numinlets" : 2,
					"numoutlets" : 1,
					"outlettype" : [ "" ],
					"patching_rect" : [ 125.25, 296.0, 43.0, 22.0 ],
					"style" : "",
					"text" : "rcv $1"
				}

			}
, 			{
				"box" : 				{
					"comment" : "Rate CV",
					"id" : "obj-59",
					"maxclass" : "inlet",
					"numinlets" : 0,
					"numoutlets" : 1,
					"outlettype" : [ "" ],
					"patching_rect" : [ 150.0, 202.646271, 30.0, 30.0 ],
					"style" : ""
				}

			}
, 			{
				"box" : 				{
					"activedialcolor" : [ 0.862745, 0.870588, 0.878431, 1.0 ],
					"focusbordercolor" : [ 0.0, 0.019608, 0.078431, 0.0 ],
					"fontface" : 0,
					"fontname" : "Century Gothic",
					"fontsize" : 11.0,
					"id" : "obj-44",
					"maxclass" : "live.dial",
					"numinlets" : 1,
					"numoutlets" : 2,
					"outlettype" : [ "", "float" ],
					"parameter_enable" : 1,
					"patching_rect" : [ 184.666672, 291.0, 34.0, 27.0 ],
					"presentation" : 1,
					"presentation_rect" : [ 42.5, 8.5, 34.0, 27.0 ],
					"saved_attribute_attributes" : 					{
						"valueof" : 						{
							"parameter_longname" : "live.dial[1]",
							"parameter_shortname" : "Rate",
							"parameter_type" : 0,
							"parameter_mmin" : 0.03,
							"parameter_mmax" : 100.0,
							"parameter_initial_enable" : 1,
							"parameter_initial" : [ 1.0 ],
							"parameter_unitstyle" : 0,
							"parameter_exponent" : 3.0
						}

					}
,
					"showname" : 0,
					"shownumber" : 0,
					"varname" : "live.dial[1]"
				}

			}
, 			{
				"box" : 				{
					"id" : "obj-35",
					"maxclass" : "newobj",
					"numinlets" : 4,
					"numoutlets" : 4,
					"outlettype" : [ "signal", "signal", "signal", "signal" ],
					"patching_rect" : [ 150.0, 342.0, 123.0, 22.0 ],
					"style" : "",
					"text" : "gen~ randm"
				}

			}
, 			{
				"box" : 				{
					"autofit" : 1,
					"id" : "obj-12",
					"maxclass" : "fpic",
					"numinlets" : 1,
					"numoutlets" : 1,
					"outlettype" : [ "jit_matrix" ],
					"patching_rect" : [ 82.875, 83.5, 47.5, 23.0 ],
					"pic" : "random_w.svg",
					"presentation" : 1,
					"presentation_rect" : [ 81.0, 43.0, 22.5, 13.0 ]
				}

			}
, 			{
				"box" : 				{
					"autofit" : 1,
					"id" : "obj-8",
					"maxclass" : "fpic",
					"numinlets" : 1,
					"numoutlets" : 1,
					"outlettype" : [ "jit_matrix" ],
					"patching_rect" : [ 148.875, 83.5, 47.5, 23.0 ],
					"pic" : "randinterp_w.svg",
					"presentation" : 1,
					"presentation_rect" : [ 5.5, 43.0, 22.5, 13.0 ]
				}

			}
, 			{
				"box" : 				{
					"id" : "obj-2",
					"maxclass" : "message",
					"numinlets" : 2,
					"numoutlets" : 1,
					"outlettype" : [ "" ],
					"patching_rect" : [ 563.5, 102.0, 55.0, 22.0 ],
					"style" : "",
					"text" : "border 1"
				}

			}
, 			{
				"box" : 				{
					"id" : "obj-7",
					"maxclass" : "message",
					"numinlets" : 2,
					"numoutlets" : 1,
					"outlettype" : [ "" ],
					"patching_rect" : [ 510.0, 102.0, 47.0, 22.0 ],
					"style" : "",
					"text" : "268 58"
				}

			}
, 			{
				"box" : 				{
					"id" : "obj-4",
					"maxclass" : "newobj",
					"numinlets" : 1,
					"numoutlets" : 1,
					"outlettype" : [ "" ],
					"patching_rect" : [ 563.5, 66.5, 56.0, 22.0 ],
					"style" : "",
					"text" : "deferlow"
				}

			}
, 			{
				"box" : 				{
					"id" : "obj-5",
					"maxclass" : "newobj",
					"numinlets" : 1,
					"numoutlets" : 1,
					"outlettype" : [ "bang" ],
					"patching_rect" : [ 563.5, 41.0, 60.0, 22.0 ],
					"style" : "",
					"text" : "loadbang"
				}

			}
, 			{
				"box" : 				{
					"id" : "obj-15",
					"maxclass" : "newobj",
					"numinlets" : 1,
					"numoutlets" : 2,
					"outlettype" : [ "", "" ],
					"patching_rect" : [ 563.5, 138.0, 69.0, 22.0 ],
					"save" : [ "#N", "thispatcher", ";", "#Q", "end", ";" ],
					"style" : "",
					"text" : "thispatcher"
				}

			}
, 			{
				"box" : 				{
					"id" : "obj-17",
					"maxclass" : "newobj",
					"numinlets" : 1,
					"numoutlets" : 1,
					"outlettype" : [ "" ],
					"patching_rect" : [ 510.0, 138.0, 44.0, 22.0 ],
					"saved_object_attributes" : 					{
						"filename" : "size",
						"parameter_enable" : 0
					}
,
					"style" : "",
					"text" : "js size"
				}

			}
, 			{
				"box" : 				{
					"id" : "obj-3",
					"maxclass" : "newobj",
					"numinlets" : 1,
					"numoutlets" : 4,
					"outlettype" : [ "", "", "", "" ],
					"patching_rect" : [ 563.5, 167.295029, 58.0, 22.0 ],
					"restore" : 					{
						"cv[1]" : [ 0.0 ],
						"cv[8]" : [ 0.0 ],
						"live.dial[1]" : [ 0.03 ],
						"live.dial[3]" : [ 0.0 ],
						"live.dial[4]" : [ 0.03 ],
						"live.dial[5]" : [ 0.0 ]
					}
,
					"style" : "",
					"text" : "autopattr",
					"varname" : "u677001201"
				}

			}
, 			{
				"box" : 				{
					"bubbleside" : 0,
					"bubbletextmargin" : 2,
					"fontname" : "Century Gothic",
					"fontsize" : 13.0,
					"id" : "obj-24",
					"linecount" : 2,
					"maxclass" : "comment",
					"numinlets" : 1,
					"numoutlets" : 0,
					"patching_rect" : [ -13.25, -1.0, 58.0, 38.0 ],
					"presentation" : 1,
					"presentation_rect" : [ 99.5, 19.0, 72.0, 22.0 ],
					"style" : "",
					"text" : "RANDOM"
				}

			}
, 			{
				"box" : 				{
					"comment" : "Interpolated Output",
					"id" : "obj-36",
					"maxclass" : "outlet",
					"numinlets" : 1,
					"numoutlets" : 0,
					"patching_rect" : [ 150.0, 381.0, 30.0, 30.0 ],
					"style" : ""
				}

			}
, 			{
				"box" : 				{
					"comment" : "Step Output",
					"id" : "obj-37",
					"maxclass" : "outlet",
					"numinlets" : 1,
					"numoutlets" : 0,
					"patching_rect" : [ 184.666672, 381.0, 30.0, 30.0 ],
					"style" : ""
				}

			}
, 			{
				"box" : 				{
					"comment" : "Dummy",
					"id" : "obj-10",
					"maxclass" : "inlet",
					"numinlets" : 0,
					"numoutlets" : 1,
					"outlettype" : [ "" ],
					"patching_rect" : [ 264.0, 202.646271, 30.0, 30.0 ],
					"style" : ""
				}

			}
, 			{
				"box" : 				{
					"comment" : "Dummy",
					"id" : "obj-6",
					"maxclass" : "inlet",
					"numinlets" : 0,
					"numoutlets" : 1,
					"outlettype" : [ "" ],
					"patching_rect" : [ -2.0, 202.646271, 30.0, 30.0 ],
					"style" : ""
				}

			}
, 			{
				"box" : 				{
					"angle" : 270.0,
					"bgcolor" : [ 0.321569, 0.321569, 0.321569, 0.901961 ],
					"id" : "obj-14",
					"maxclass" : "panel",
					"mode" : 0,
					"numinlets" : 1,
					"numoutlets" : 0,
					"patching_rect" : [ 117.0, 8.0, 32.0, 32.0 ],
					"presentation" : 1,
					"presentation_rect" : [ 79.0, 43.0, 26.0, 19.0 ],
					"proportion" : 0.39,
					"style" : ""
				}

			}
, 			{
				"box" : 				{
					"angle" : 270.0,
					"bgcolor" : [ 0.321569, 0.321569, 0.321569, 0.901961 ],
					"id" : "obj-19",
					"maxclass" : "panel",
					"mode" : 0,
					"numinlets" : 1,
					"numoutlets" : 0,
					"patching_rect" : [ 74.0, 10.0, 40.0, 48.0 ],
					"presentation" : 1,
					"presentation_rect" : [ 4.0, 43.0, 26.0, 19.0 ],
					"proportion" : 0.39,
					"style" : ""
				}

			}
, 			{
				"box" : 				{
					"autofit" : 1,
					"id" : "obj-60",
					"maxclass" : "fpic",
					"numinlets" : 1,
					"numoutlets" : 1,
					"outlettype" : [ "jit_matrix" ],
					"patching_rect" : [ -17.5, -120.997513, 484.0, 310.292542 ],
					"pic" : "bbronze.jpg",
					"presentation" : 1,
					"presentation_rect" : [ -17.5, -120.997513, 484.0, 310.292542 ]
				}

			}
 ],
		"lines" : [ 			{
				"patchline" : 				{
					"destination" : [ "obj-52", 0 ],
					"disabled" : 0,
					"hidden" : 0,
					"source" : [ "obj-112", 0 ]
				}

			}
, 			{
				"patchline" : 				{
					"destination" : [ "obj-35", 0 ],
					"disabled" : 0,
					"hidden" : 0,
					"source" : [ "obj-18", 0 ]
				}

			}
, 			{
				"patchline" : 				{
					"destination" : [ "obj-15", 0 ],
					"disabled" : 0,
					"hidden" : 0,
					"source" : [ "obj-2", 0 ]
				}

			}
, 			{
				"patchline" : 				{
					"destination" : [ "obj-35", 3 ],
					"disabled" : 0,
					"hidden" : 0,
					"source" : [ "obj-22", 0 ]
				}

			}
, 			{
				"patchline" : 				{
					"destination" : [ "obj-35", 2 ],
					"disabled" : 0,
					"hidden" : 0,
					"source" : [ "obj-25", 0 ]
				}

			}
, 			{
				"patchline" : 				{
					"destination" : [ "obj-27", 0 ],
					"disabled" : 0,
					"hidden" : 0,
					"source" : [ "obj-35", 3 ]
				}

			}
, 			{
				"patchline" : 				{
					"destination" : [ "obj-28", 0 ],
					"disabled" : 0,
					"hidden" : 0,
					"source" : [ "obj-35", 2 ]
				}

			}
, 			{
				"patchline" : 				{
					"destination" : [ "obj-36", 0 ],
					"disabled" : 0,
					"hidden" : 0,
					"source" : [ "obj-35", 0 ]
				}

			}
, 			{
				"patchline" : 				{
					"destination" : [ "obj-37", 0 ],
					"disabled" : 0,
					"hidden" : 0,
					"source" : [ "obj-35", 1 ]
				}

			}
, 			{
				"patchline" : 				{
					"destination" : [ "obj-2", 0 ],
					"disabled" : 0,
					"hidden" : 0,
					"source" : [ "obj-4", 0 ]
				}

			}
, 			{
				"patchline" : 				{
					"destination" : [ "obj-7", 0 ],
					"disabled" : 0,
					"hidden" : 0,
					"source" : [ "obj-4", 0 ]
				}

			}
, 			{
				"patchline" : 				{
					"destination" : [ "obj-35", 1 ],
					"disabled" : 0,
					"hidden" : 0,
					"source" : [ "obj-44", 0 ]
				}

			}
, 			{
				"patchline" : 				{
					"destination" : [ "obj-71", 1 ],
					"disabled" : 0,
					"hidden" : 0,
					"source" : [ "obj-45", 0 ]
				}

			}
, 			{
				"patchline" : 				{
					"destination" : [ "obj-71", 0 ],
					"disabled" : 0,
					"hidden" : 0,
					"source" : [ "obj-46", 0 ]
				}

			}
, 			{
				"patchline" : 				{
					"destination" : [ "obj-4", 0 ],
					"disabled" : 0,
					"hidden" : 0,
					"source" : [ "obj-5", 0 ]
				}

			}
, 			{
				"patchline" : 				{
					"destination" : [ "obj-18", 0 ],
					"disabled" : 0,
					"hidden" : 0,
					"source" : [ "obj-52", 0 ]
				}

			}
, 			{
				"patchline" : 				{
					"destination" : [ "obj-61", 0 ],
					"disabled" : 0,
					"hidden" : 0,
					"source" : [ "obj-55", 0 ]
				}

			}
, 			{
				"patchline" : 				{
					"destination" : [ "obj-55", 0 ],
					"disabled" : 0,
					"hidden" : 0,
					"source" : [ "obj-56", 0 ]
				}

			}
, 			{
				"patchline" : 				{
					"destination" : [ "obj-35", 0 ],
					"disabled" : 0,
					"hidden" : 0,
					"source" : [ "obj-59", 0 ]
				}

			}
, 			{
				"patchline" : 				{
					"destination" : [ "obj-35", 0 ],
					"disabled" : 0,
					"hidden" : 0,
					"source" : [ "obj-61", 0 ]
				}

			}
, 			{
				"patchline" : 				{
					"destination" : [ "obj-17", 0 ],
					"disabled" : 0,
					"hidden" : 0,
					"source" : [ "obj-7", 0 ]
				}

			}
, 			{
				"patchline" : 				{
					"destination" : [ "obj-35", 0 ],
					"disabled" : 0,
					"hidden" : 0,
					"source" : [ "obj-71", 0 ]
				}

			}
 ],
		"parameters" : 		{
			"obj-22" : [ "live.dial[3]", "Rate", 0 ],
			"obj-45" : [ "live.dial[4]", "Rate", 0 ],
			"obj-44" : [ "live.dial[1]", "Rate", 0 ],
			"obj-46" : [ "live.dial[5]", "Rate", 0 ]
		}
,
		"dependency_cache" : [ 			{
				"name" : "bbronze.jpg",
				"bootpath" : "~/Documents/Project MODULATE!/Repository/Modulate-Synth/Lib/Max 7/Library/Modulate",
				"patcherrelativepath" : ".",
				"type" : "JPEG",
				"implicit" : 1
			}
, 			{
				"name" : "size.js",
				"bootpath" : "~/Documents/Project MODULATE!/Repository/Modulate-Synth/Lib/Max 7/Library/Modulate",
				"patcherrelativepath" : ".",
				"type" : "TEXT",
				"implicit" : 1
			}
, 			{
				"name" : "randinterp_w.svg",
				"bootpath" : "~/Documents/Project MODULATE!/Repository/Modulate-Synth/Lib/Max 7/Library/Modulate",
				"patcherrelativepath" : ".",
				"type" : "svg ",
				"implicit" : 1
			}
, 			{
				"name" : "random_w.svg",
				"bootpath" : "~/Documents/Project MODULATE!/Repository/Modulate-Synth/Lib/Max 7/Library/Modulate",
				"patcherrelativepath" : ".",
				"type" : "svg ",
				"implicit" : 1
			}
, 			{
				"name" : "randm.gendsp",
				"bootpath" : "~/Documents/Project MODULATE!/Repository/Modulate-Synth/Lib/Max 7/Library/Modulate",
				"patcherrelativepath" : ".",
				"type" : "gDSP",
				"implicit" : 1
			}
 ],
		"embedsnapshot" : 0,
		"styles" : [ 			{
				"name" : "AudioStatus_Menu",
				"default" : 				{
					"bgfillcolor" : 					{
						"type" : "color",
						"color" : [ 0.294118, 0.313726, 0.337255, 1 ],
						"color1" : [ 0.454902, 0.462745, 0.482353, 0.0 ],
						"color2" : [ 0.290196, 0.309804, 0.301961, 1.0 ],
						"angle" : 270.0,
						"proportion" : 0.39,
						"autogradient" : 0
					}

				}
,
				"parentstyle" : "",
				"multi" : 0
			}
, 			{
				"name" : "Luca",
				"default" : 				{
					"color" : [ 0.475135, 0.293895, 0.251069, 1.0 ],
					"elementcolor" : [ 0.786675, 0.801885, 0.845022, 1.0 ],
					"bgfillcolor" : 					{
						"type" : "gradient",
						"color" : [ 0.290196, 0.309804, 0.301961, 1.0 ],
						"color1" : [ 0.862745, 0.870588, 0.878431, 1.0 ],
						"color2" : [ 0.65098, 0.666667, 0.662745, 1.0 ],
						"angle" : 270.0,
						"proportion" : 0.39,
						"autogradient" : 0
					}
,
					"selectioncolor" : [ 0.720698, 0.16723, 0.080014, 1.0 ],
					"bgcolor" : [ 0.904179, 0.895477, 0.842975, 0.56 ],
					"textcolor_inverse" : [ 0.239216, 0.254902, 0.278431, 1.0 ],
					"fontname" : [ "Open Sans Semibold" ],
					"accentcolor" : [ 0.32549, 0.345098, 0.372549, 1.0 ]
				}
,
				"parentstyle" : "",
				"multi" : 0
			}
, 			{
				"name" : "dark-night-patch",
				"default" : 				{
					"bgfillcolor" : 					{
						"type" : "gradient",
						"color1" : [ 0.376471, 0.384314, 0.4, 1.0 ],
						"color2" : [ 0.290196, 0.309804, 0.301961, 1.0 ],
						"color" : [ 0.290196, 0.309804, 0.301961, 1.0 ],
						"angle" : 270.0,
						"proportion" : 0.39
					}
,
					"textcolor" : [ 0.862745, 0.870588, 0.878431, 1.0 ],
					"patchlinecolor" : [ 0.439216, 0.74902, 0.254902, 0.898039 ],
					"accentcolor" : [ 0.952941, 0.564706, 0.098039, 1.0 ]
				}
,
				"parentstyle" : "",
				"multi" : 0
			}
, 			{
				"name" : "newobjBlue-1",
				"default" : 				{
					"accentcolor" : [ 0.317647, 0.654902, 0.976471, 1.0 ]
				}
,
				"parentstyle" : "",
				"multi" : 0
			}
, 			{
				"name" : "newobjGreen-1",
				"default" : 				{
					"accentcolor" : [ 0.0, 0.533333, 0.168627, 1.0 ]
				}
,
				"parentstyle" : "",
				"multi" : 0
			}
, 			{
				"name" : "newobjRed-1",
				"default" : 				{
					"accentcolor" : [ 0.784314, 0.145098, 0.023529, 1.0 ]
				}
,
				"parentstyle" : "",
				"multi" : 0
			}
, 			{
				"name" : "newobjYellow-1",
				"default" : 				{
					"fontsize" : [ 12.059008 ],
					"accentcolor" : [ 0.82517, 0.78181, 0.059545, 1.0 ]
				}
,
				"parentstyle" : "",
				"multi" : 0
			}
, 			{
				"name" : "newobjYellow-2",
				"default" : 				{
					"fontsize" : [ 12.059008 ],
					"accentcolor" : [ 0.82517, 0.78181, 0.059545, 1.0 ]
				}
,
				"parentstyle" : "",
				"multi" : 0
			}
, 			{
				"name" : "numberGold-1",
				"default" : 				{
					"accentcolor" : [ 0.764706, 0.592157, 0.101961, 1.0 ]
				}
,
				"parentstyle" : "",
				"multi" : 0
			}
 ]
	}

}
